<svg xmlns="http://www.w3.org/2000/svg" xmlns:xlink="http://www.w3.org/1999/xlink" xmlns:jfreesvg="http://www.jfree.org/jfreesvg/svg" width="880" height="880" text-rendering="auto" shape-rendering="auto">
  <defs>
    <g id="O">
      <ellipse cx="5" cy="5" rx="5" ry="5" style="stroke-width: 2.0;stroke: rgb(0,0,0);stroke-opacity: 1.0;stroke-linecap: square;; fill: none" transform="matrix(1,0,0,1,0,0)"/>
    </g>
    <g id="+">
      <line x1="5" y1="0" x2="5" y2="10" style="stroke-width: 2.0;stroke: rgb(0,0,0);stroke-opacity: 1.0;stroke-linecap: square;" transform="matrix(1,0,0,1,0,0)"/>
      <line x1="0" y1="5" x2="10" y2="5" style="stroke-width: 2.0;stroke: rgb(0,0,0);stroke-opacity: 1.0;stroke-linecap: square;" transform="matrix(1,0,0,1,0,0)"/>
    </g>
    <g id="X">
      <line x1="10" y1="0" x2="0" y2="10" style="stroke-width: 2.0;stroke: rgb(0,0,0);stroke-opacity: 1.0;stroke-linecap: square;" transform="matrix(1,0,0,1,0,0)"/>
      <line x1="0" y1="0" x2="10" y2="10" style="stroke-width: 2.0;stroke: rgb(0,0,0);stroke-opacity: 1.0;stroke-linecap: square;" transform="matrix(1,0,0,1,0,0)"/>
    </g>
    <g id="|">
      <line x1="5" y1="0" x2="5" y2="10" style="stroke-width: 2.0;stroke: rgb(0,0,0);stroke-opacity: 1.0;stroke-linecap: square;" transform="matrix(1,0,0,1,0,0)"/>
    </g>
    <g id="-">
      <line x1="0" y1="5" x2="10" y2="5" style="stroke-width: 2.0;stroke: rgb(0,0,0);stroke-opacity: 1.0;stroke-linecap: square;" transform="matrix(1,0,0,1,0,0)"/>
    </g>
    <g id="\">
      <line x1="0" y1="0" x2="10" y2="10" style="stroke-width: 2.0;stroke: rgb(0,0,0);stroke-opacity: 1.0;stroke-linecap: square;" transform="matrix(1,0,0,1,0,0)"/>
    </g>
    <g id="/">
      <line x1="10" y1="0" x2="0" y2="10" style="stroke-width: 2.0;stroke: rgb(0,0,0);stroke-opacity: 1.0;stroke-linecap: square;" transform="matrix(1,0,0,1,0,0)"/>
    </g>
    <g id="#">
      <rect x="0" y="0" width="10" height="10" style="fill: rgb(0,0,0); fill-opacity: 1.0" transform="matrix(1,0,0,1,0,0)"/>
    </g>
  </defs>
  <rect x="0" y="0" width="880" height="880" style="fill: rgb(255,255,255); fill-opacity: 1.0" transform="matrix(1,0,0,1,0,0)"/>
  <use xlink:href="#/" x="120" y="120"/>
  <use xlink:href="#/" x="150" y="120"/>
  <use xlink:href="#\" x="200" y="120"/>
  <use xlink:href="#\" x="230" y="120"/>
  <use xlink:href="#/" x="260" y="120"/>
  <use xlink:href="#/" x="290" y="120"/>
  <use xlink:href="#\" x="340" y="120"/>
  <use xlink:href="#\" x="370" y="120"/>
  <use xlink:href="#/" x="400" y="120"/>
  <use xlink:href="#/" x="430" y="120"/>
  <use xlink:href="#/" x="440" y="120"/>
  <use xlink:href="#/" x="470" y="120"/>
  <use xlink:href="#\" x="500" y="120"/>
  <use xlink:href="#\" x="530" y="120"/>
  <use xlink:href="#/" x="580" y="120"/>
  <use xlink:href="#/" x="610" y="120"/>
  <use xlink:href="#\" x="640" y="120"/>
  <use xlink:href="#\" x="670" y="120"/>
  <use xlink:href="#/" x="720" y="120"/>
  <use xlink:href="#/" x="750" y="120"/>
  <use xlink:href="#\" x="130" y="130"/>
  <use xlink:href="#\" x="150" y="130"/>
  <use xlink:href="#\" x="170" y="130"/>
  <use xlink:href="#/" x="190" y="130"/>
  <use xlink:href="#/" x="210" y="130"/>
  <use xlink:href="#/" x="230" y="130"/>
  <use xlink:href="#\" x="360" y="130"/>
  <use xlink:href="#\" x="380" y="130"/>
  <use xlink:href="#\" x="400" y="130"/>
  <use xlink:href="#/" x="420" y="130"/>
  <use xlink:href="#/" x="450" y="130"/>
  <use xlink:href="#\" x="470" y="130"/>
  <use xlink:href="#\" x="490" y="130"/>
  <use xlink:href="#\" x="510" y="130"/>
  <use xlink:href="#/" x="640" y="130"/>
  <use xlink:href="#/" x="660" y="130"/>
  <use xlink:href="#/" x="680" y="130"/>
  <use xlink:href="#\" x="700" y="130"/>
  <use xlink:href="#\" x="720" y="130"/>
  <use xlink:href="#\" x="740" y="130"/>
  <use xlink:href="#/" x="140" y="140"/>
  <use xlink:href="#\" x="210" y="140"/>
  <use xlink:href="#\" x="240" y="140"/>
  <use xlink:href="#/" x="270" y="140"/>
  <use xlink:href="#/" x="300" y="140"/>
  <use xlink:href="#/" x="330" y="140"/>
  <use xlink:href="#\" x="400" y="140"/>
  <use xlink:href="#\" x="430" y="140"/>
  <use xlink:href="#\" x="440" y="140"/>
  <use xlink:href="#\" x="470" y="140"/>
  <use xlink:href="#/" x="540" y="140"/>
  <use xlink:href="#/" x="570" y="140"/>
  <use xlink:href="#/" x="600" y="140"/>
  <use xlink:href="#\" x="630" y="140"/>
  <use xlink:href="#\" x="660" y="140"/>
  <use xlink:href="#/" x="730" y="140"/>
  <use xlink:href="#/" x="120" y="150"/>
  <use xlink:href="#\" x="130" y="150"/>
  <use xlink:href="#/" x="190" y="150"/>
  <use xlink:href="#\" x="200" y="150"/>
  <use xlink:href="#/" x="250" y="150"/>
  <use xlink:href="#\" x="260" y="150"/>
  <use xlink:href="#/" x="320" y="150"/>
  <use xlink:href="#\" x="330" y="150"/>
  <use xlink:href="#/" x="380" y="150"/>
  <use xlink:href="#\" x="390" y="150"/>
  <use xlink:href="#\" x="480" y="150"/>
  <use xlink:href="#/" x="490" y="150"/>
  <use xlink:href="#\" x="540" y="150"/>
  <use xlink:href="#/" x="550" y="150"/>
  <use xlink:href="#\" x="610" y="150"/>
  <use xlink:href="#/" x="620" y="150"/>
  <use xlink:href="#\" x="670" y="150"/>
  <use xlink:href="#/" x="680" y="150"/>
  <use xlink:href="#\" x="740" y="150"/>
  <use xlink:href="#/" x="750" y="150"/>
  <use xlink:href="#\" x="130" y="170"/>
  <use xlink:href="#/" x="190" y="170"/>
  <use xlink:href="#\" x="240" y="170"/>
  <use xlink:href="#/" x="250" y="170"/>
  <use xlink:href="#\" x="300" y="170"/>
  <use xlink:href="#/" x="310" y="170"/>
  <use xlink:href="#\" x="360" y="170"/>
  <use xlink:href="#/" x="420" y="170"/>
  <use xlink:href="#/" x="450" y="170"/>
  <use xlink:href="#\" x="510" y="170"/>
  <use xlink:href="#/" x="560" y="170"/>
  <use xlink:href="#\" x="570" y="170"/>
  <use xlink:href="#/" x="620" y="170"/>
  <use xlink:href="#\" x="630" y="170"/>
  <use xlink:href="#/" x="680" y="170"/>
  <use xlink:href="#\" x="740" y="170"/>
  <use xlink:href="#\" x="200" y="180"/>
  <use xlink:href="#\" x="230" y="180"/>
  <use xlink:href="#\" x="260" y="180"/>
  <use xlink:href="#\" x="290" y="180"/>
  <use xlink:href="#\" x="320" y="180"/>
  <use xlink:href="#\" x="350" y="180"/>
  <use xlink:href="#\" x="380" y="180"/>
  <use xlink:href="#\" x="410" y="180"/>
  <use xlink:href="#\" x="460" y="180"/>
  <use xlink:href="#\" x="490" y="180"/>
  <use xlink:href="#\" x="520" y="180"/>
  <use xlink:href="#\" x="550" y="180"/>
  <use xlink:href="#\" x="580" y="180"/>
  <use xlink:href="#\" x="610" y="180"/>
  <use xlink:href="#\" x="640" y="180"/>
  <use xlink:href="#\" x="670" y="180"/>
  <use xlink:href="#/" x="130" y="190"/>
  <use xlink:href="#/" x="150" y="190"/>
  <use xlink:href="#/" x="170" y="190"/>
  <use xlink:href="#/" x="190" y="190"/>
  <use xlink:href="#/" x="210" y="190"/>
  <use xlink:href="#/" x="230" y="190"/>
  <use xlink:href="#/" x="250" y="190"/>
  <use xlink:href="#/" x="270" y="190"/>
  <use xlink:href="#/" x="290" y="190"/>
  <use xlink:href="#/" x="310" y="190"/>
  <use xlink:href="#/" x="330" y="190"/>
  <use xlink:href="#/" x="350" y="190"/>
  <use xlink:href="#/" x="370" y="190"/>
  <use xlink:href="#/" x="390" y="190"/>
  <use xlink:href="#/" x="410" y="190"/>
  <use xlink:href="#/" x="430" y="190"/>
  <use xlink:href="#/" x="440" y="190"/>
  <use xlink:href="#/" x="460" y="190"/>
  <use xlink:href="#/" x="480" y="190"/>
  <use xlink:href="#/" x="500" y="190"/>
  <use xlink:href="#/" x="520" y="190"/>
  <use xlink:href="#/" x="540" y="190"/>
  <use xlink:href="#/" x="560" y="190"/>
  <use xlink:href="#/" x="580" y="190"/>
  <use xlink:href="#/" x="600" y="190"/>
  <use xlink:href="#/" x="620" y="190"/>
  <use xlink:href="#/" x="640" y="190"/>
  <use xlink:href="#/" x="660" y="190"/>
  <use xlink:href="#/" x="680" y="190"/>
  <use xlink:href="#/" x="700" y="190"/>
  <use xlink:href="#/" x="720" y="190"/>
  <use xlink:href="#/" x="740" y="190"/>
  <use xlink:href="#\" x="120" y="200"/>
  <use xlink:href="#\" x="150" y="200"/>
  <use xlink:href="#\" x="180" y="200"/>
  <use xlink:href="#\" x="210" y="200"/>
  <use xlink:href="#/" x="380" y="200"/>
  <use xlink:href="#/" x="410" y="200"/>
  <use xlink:href="#/" x="460" y="200"/>
  <use xlink:href="#/" x="490" y="200"/>
  <use xlink:href="#\" x="660" y="200"/>
  <use xlink:href="#\" x="690" y="200"/>
  <use xlink:href="#\" x="720" y="200"/>
  <use xlink:href="#\" x="750" y="200"/>
  <use xlink:href="#/" x="130" y="210"/>
  <use xlink:href="#\" x="140" y="210"/>
  <use xlink:href="#/" x="190" y="210"/>
  <use xlink:href="#\" x="200" y="210"/>
  <use xlink:href="#\" x="250" y="210"/>
  <use xlink:href="#/" x="300" y="210"/>
  <use xlink:href="#\" x="310" y="210"/>
  <use xlink:href="#/" x="360" y="210"/>
  <use xlink:href="#\" x="370" y="210"/>
  <use xlink:href="#/" x="420" y="210"/>
  <use xlink:href="#\" x="430" y="210"/>
  <use xlink:href="#\" x="440" y="210"/>
  <use xlink:href="#/" x="450" y="210"/>
  <use xlink:href="#\" x="500" y="210"/>
  <use xlink:href="#/" x="510" y="210"/>
  <use xlink:href="#\" x="560" y="210"/>
  <use xlink:href="#/" x="570" y="210"/>
  <use xlink:href="#\" x="620" y="210"/>
  <use xlink:href="#\" x="670" y="210"/>
  <use xlink:href="#/" x="680" y="210"/>
  <use xlink:href="#\" x="730" y="210"/>
  <use xlink:href="#/" x="740" y="210"/>
  <use xlink:href="#\" x="120" y="230"/>
  <use xlink:href="#/" x="130" y="230"/>
  <use xlink:href="#\" x="180" y="230"/>
  <use xlink:href="#/" x="190" y="230"/>
  <use xlink:href="#\" x="250" y="230"/>
  <use xlink:href="#/" x="260" y="230"/>
  <use xlink:href="#\" x="310" y="230"/>
  <use xlink:href="#/" x="320" y="230"/>
  <use xlink:href="#\" x="380" y="230"/>
  <use xlink:href="#/" x="390" y="230"/>
  <use xlink:href="#/" x="480" y="230"/>
  <use xlink:href="#\" x="490" y="230"/>
  <use xlink:href="#/" x="550" y="230"/>
  <use xlink:href="#\" x="560" y="230"/>
  <use xlink:href="#/" x="610" y="230"/>
  <use xlink:href="#\" x="620" y="230"/>
  <use xlink:href="#/" x="680" y="230"/>
  <use xlink:href="#\" x="690" y="230"/>
  <use xlink:href="#/" x="740" y="230"/>
  <use xlink:href="#\" x="750" y="230"/>
  <use xlink:href="#\" x="140" y="240"/>
  <use xlink:href="#\" x="170" y="240"/>
  <use xlink:href="#/" x="240" y="240"/>
  <use xlink:href="#/" x="270" y="240"/>
  <use xlink:href="#/" x="300" y="240"/>
  <use xlink:href="#\" x="330" y="240"/>
  <use xlink:href="#\" x="360" y="240"/>
  <use xlink:href="#\" x="390" y="240"/>
  <use xlink:href="#/" x="430" y="240"/>
  <use xlink:href="#/" x="440" y="240"/>
  <use xlink:href="#\" x="480" y="240"/>
  <use xlink:href="#\" x="510" y="240"/>
  <use xlink:href="#\" x="540" y="240"/>
  <use xlink:href="#/" x="570" y="240"/>
  <use xlink:href="#/" x="600" y="240"/>
  <use xlink:href="#/" x="630" y="240"/>
  <use xlink:href="#\" x="700" y="240"/>
  <use xlink:href="#\" x="730" y="240"/>
  <use xlink:href="#/" x="150" y="250"/>
  <use xlink:href="#/" x="170" y="250"/>
  <use xlink:href="#/" x="190" y="250"/>
  <use xlink:href="#\" x="210" y="250"/>
  <use xlink:href="#\" x="230" y="250"/>
  <use xlink:href="#\" x="250" y="250"/>
  <use xlink:href="#\" x="270" y="250"/>
  <use xlink:href="#/" x="400" y="250"/>
  <use xlink:href="#/" x="420" y="250"/>
  <use xlink:href="#/" x="450" y="250"/>
  <use xlink:href="#/" x="470" y="250"/>
  <use xlink:href="#\" x="600" y="250"/>
  <use xlink:href="#\" x="620" y="250"/>
  <use xlink:href="#\" x="640" y="250"/>
  <use xlink:href="#\" x="660" y="250"/>
  <use xlink:href="#/" x="680" y="250"/>
  <use xlink:href="#/" x="700" y="250"/>
  <use xlink:href="#/" x="720" y="250"/>
  <use xlink:href="#/" x="120" y="260"/>
  <use xlink:href="#\" x="150" y="260"/>
  <use xlink:href="#\" x="180" y="260"/>
  <use xlink:href="#/" x="230" y="260"/>
  <use xlink:href="#/" x="260" y="260"/>
  <use xlink:href="#\" x="290" y="260"/>
  <use xlink:href="#\" x="320" y="260"/>
  <use xlink:href="#/" x="370" y="260"/>
  <use xlink:href="#/" x="400" y="260"/>
  <use xlink:href="#\" x="430" y="260"/>
  <use xlink:href="#\" x="440" y="260"/>
  <use xlink:href="#/" x="470" y="260"/>
  <use xlink:href="#/" x="500" y="260"/>
  <use xlink:href="#\" x="550" y="260"/>
  <use xlink:href="#\" x="580" y="260"/>
  <use xlink:href="#/" x="610" y="260"/>
  <use xlink:href="#/" x="640" y="260"/>
  <use xlink:href="#\" x="690" y="260"/>
  <use xlink:href="#\" x="720" y="260"/>
  <use xlink:href="#/" x="750" y="260"/>
  <use xlink:href="#/" x="140" y="270"/>
  <use xlink:href="#/" x="190" y="270"/>
  <use xlink:href="#/" x="240" y="270"/>
  <use xlink:href="#\" x="250" y="270"/>
  <use xlink:href="#/" x="290" y="270"/>
  <use xlink:href="#\" x="300" y="270"/>
  <use xlink:href="#/" x="340" y="270"/>
  <use xlink:href="#\" x="350" y="270"/>
  <use xlink:href="#\" x="400" y="270"/>
  <use xlink:href="#\" x="470" y="270"/>
  <use xlink:href="#\" x="520" y="270"/>
  <use xlink:href="#/" x="530" y="270"/>
  <use xlink:href="#\" x="570" y="270"/>
  <use xlink:href="#/" x="580" y="270"/>
  <use xlink:href="#\" x="620" y="270"/>
  <use xlink:href="#/" x="630" y="270"/>
  <use xlink:href="#/" x="680" y="270"/>
  <use xlink:href="#/" x="730" y="270"/>
  <use xlink:href="#/" x="320" y="280"/>
  <use xlink:href="#/" x="330" y="280"/>
  <use xlink:href="#/" x="340" y="280"/>
  <use xlink:href="#/" x="350" y="280"/>
  <use xlink:href="#/" x="360" y="280"/>
  <use xlink:href="#\" x="370" y="280"/>
  <use xlink:href="#\" x="380" y="280"/>
  <use xlink:href="#\" x="390" y="280"/>
  <use xlink:href="#\" x="400" y="280"/>
  <use xlink:href="#\" x="410" y="280"/>
  <use xlink:href="#\" x="460" y="280"/>
  <use xlink:href="#\" x="470" y="280"/>
  <use xlink:href="#\" x="480" y="280"/>
  <use xlink:href="#\" x="490" y="280"/>
  <use xlink:href="#\" x="500" y="280"/>
  <use xlink:href="#/" x="510" y="280"/>
  <use xlink:href="#/" x="520" y="280"/>
  <use xlink:href="#/" x="530" y="280"/>
  <use xlink:href="#/" x="540" y="280"/>
  <use xlink:href="#/" x="550" y="280"/>
  <use xlink:href="#/" x="120" y="290"/>
  <use xlink:href="#\" x="180" y="290"/>
  <use xlink:href="#/" x="190" y="290"/>
  <use xlink:href="#\" x="260" y="290"/>
  <use xlink:href="#/" x="270" y="290"/>
  <use xlink:href="#\" x="330" y="290"/>
  <use xlink:href="#/" x="340" y="290"/>
  <use xlink:href="#\" x="410" y="290"/>
  <use xlink:href="#/" x="420" y="290"/>
  <use xlink:href="#/" x="450" y="290"/>
  <use xlink:href="#\" x="460" y="290"/>
  <use xlink:href="#/" x="530" y="290"/>
  <use xlink:href="#\" x="540" y="290"/>
  <use xlink:href="#/" x="600" y="290"/>
  <use xlink:href="#\" x="610" y="290"/>
  <use xlink:href="#/" x="680" y="290"/>
  <use xlink:href="#\" x="690" y="290"/>
  <use xlink:href="#/" x="750" y="290"/>
  <use xlink:href="#/" x="140" y="300"/>
  <use xlink:href="#\" x="170" y="300"/>
  <use xlink:href="#/" x="210" y="300"/>
  <use xlink:href="#/" x="240" y="300"/>
  <use xlink:href="#\" x="270" y="300"/>
  <use xlink:href="#/" x="310" y="300"/>
  <use xlink:href="#\" x="340" y="300"/>
  <use xlink:href="#\" x="370" y="300"/>
  <use xlink:href="#/" x="410" y="300"/>
  <use xlink:href="#/" x="460" y="300"/>
  <use xlink:href="#\" x="500" y="300"/>
  <use xlink:href="#\" x="530" y="300"/>
  <use xlink:href="#/" x="560" y="300"/>
  <use xlink:href="#\" x="600" y="300"/>
  <use xlink:href="#/" x="630" y="300"/>
  <use xlink:href="#/" x="660" y="300"/>
  <use xlink:href="#\" x="700" y="300"/>
  <use xlink:href="#/" x="730" y="300"/>
  <use xlink:href="#/" x="170" y="310"/>
  <use xlink:href="#/" x="190" y="310"/>
  <use xlink:href="#\" x="210" y="310"/>
  <use xlink:href="#\" x="230" y="310"/>
  <use xlink:href="#/" x="300" y="310"/>
  <use xlink:href="#/" x="320" y="310"/>
  <use xlink:href="#\" x="340" y="310"/>
  <use xlink:href="#/" x="410" y="310"/>
  <use xlink:href="#/" x="430" y="310"/>
  <use xlink:href="#/" x="440" y="310"/>
  <use xlink:href="#/" x="460" y="310"/>
  <use xlink:href="#\" x="530" y="310"/>
  <use xlink:href="#/" x="550" y="310"/>
  <use xlink:href="#/" x="570" y="310"/>
  <use xlink:href="#\" x="640" y="310"/>
  <use xlink:href="#\" x="660" y="310"/>
  <use xlink:href="#/" x="680" y="310"/>
  <use xlink:href="#/" x="700" y="310"/>
  <use xlink:href="#/" x="150" y="320"/>
  <use xlink:href="#\" x="180" y="320"/>
  <use xlink:href="#/" x="230" y="320"/>
  <use xlink:href="#\" x="260" y="320"/>
  <use xlink:href="#/" x="280" y="320"/>
  <use xlink:href="#/" x="310" y="320"/>
  <use xlink:href="#\" x="340" y="320"/>
  <use xlink:href="#/" x="360" y="320"/>
  <use xlink:href="#\" x="390" y="320"/>
  <use xlink:href="#\" x="480" y="320"/>
  <use xlink:href="#/" x="510" y="320"/>
  <use xlink:href="#\" x="530" y="320"/>
  <use xlink:href="#/" x="560" y="320"/>
  <use xlink:href="#/" x="590" y="320"/>
  <use xlink:href="#\" x="610" y="320"/>
  <use xlink:href="#/" x="640" y="320"/>
  <use xlink:href="#\" x="690" y="320"/>
  <use xlink:href="#/" x="720" y="320"/>
  <use xlink:href="#/" x="140" y="330"/>
  <use xlink:href="#\" x="150" y="330"/>
  <use xlink:href="#/" x="190" y="330"/>
  <use xlink:href="#\" x="240" y="330"/>
  <use xlink:href="#/" x="280" y="330"/>
  <use xlink:href="#\" x="290" y="330"/>
  <use xlink:href="#/" x="330" y="330"/>
  <use xlink:href="#\" x="380" y="330"/>
  <use xlink:href="#/" x="420" y="330"/>
  <use xlink:href="#\" x="430" y="330"/>
  <use xlink:href="#\" x="440" y="330"/>
  <use xlink:href="#/" x="450" y="330"/>
  <use xlink:href="#\" x="490" y="330"/>
  <use xlink:href="#/" x="540" y="330"/>
  <use xlink:href="#\" x="580" y="330"/>
  <use xlink:href="#/" x="590" y="330"/>
  <use xlink:href="#\" x="630" y="330"/>
  <use xlink:href="#/" x="680" y="330"/>
  <use xlink:href="#\" x="720" y="330"/>
  <use xlink:href="#/" x="730" y="330"/>
  <use xlink:href="#\" x="120" y="340"/>
  <use xlink:href="#/" x="270" y="340"/>
  <use xlink:href="#/" x="280" y="340"/>
  <use xlink:href="#/" x="290" y="340"/>
  <use xlink:href="#\" x="300" y="340"/>
  <use xlink:href="#\" x="310" y="340"/>
  <use xlink:href="#\" x="320" y="340"/>
  <use xlink:href="#\" x="550" y="340"/>
  <use xlink:href="#\" x="560" y="340"/>
  <use xlink:href="#\" x="570" y="340"/>
  <use xlink:href="#/" x="580" y="340"/>
  <use xlink:href="#/" x="590" y="340"/>
  <use xlink:href="#/" x="600" y="340"/>
  <use xlink:href="#\" x="750" y="340"/>
  <use xlink:href="#\" x="180" y="350"/>
  <use xlink:href="#/" x="190" y="350"/>
  <use xlink:href="#\" x="270" y="350"/>
  <use xlink:href="#/" x="280" y="350"/>
  <use xlink:href="#\" x="360" y="350"/>
  <use xlink:href="#/" x="370" y="350"/>
  <use xlink:href="#/" x="500" y="350"/>
  <use xlink:href="#\" x="510" y="350"/>
  <use xlink:href="#/" x="590" y="350"/>
  <use xlink:href="#\" x="600" y="350"/>
  <use xlink:href="#/" x="680" y="350"/>
  <use xlink:href="#\" x="690" y="350"/>
  <use xlink:href="#\" x="130" y="360"/>
  <use xlink:href="#\" x="170" y="360"/>
  <use xlink:href="#/" x="210" y="360"/>
  <use xlink:href="#\" x="240" y="360"/>
  <use xlink:href="#/" x="280" y="360"/>
  <use xlink:href="#/" x="320" y="360"/>
  <use xlink:href="#\" x="350" y="360"/>
  <use xlink:href="#/" x="390" y="360"/>
  <use xlink:href="#\" x="420" y="360"/>
  <use xlink:href="#\" x="450" y="360"/>
  <use xlink:href="#/" x="480" y="360"/>
  <use xlink:href="#\" x="520" y="360"/>
  <use xlink:href="#/" x="550" y="360"/>
  <use xlink:href="#/" x="590" y="360"/>
  <use xlink:href="#\" x="630" y="360"/>
  <use xlink:href="#/" x="660" y="360"/>
  <use xlink:href="#\" x="700" y="360"/>
  <use xlink:href="#\" x="740" y="360"/>
  <use xlink:href="#\" x="120" y="370"/>
  <use xlink:href="#/" x="190" y="370"/>
  <use xlink:href="#\" x="210" y="370"/>
  <use xlink:href="#/" x="260" y="370"/>
  <use xlink:href="#\" x="280" y="370"/>
  <use xlink:href="#\" x="300" y="370"/>
  <use xlink:href="#/" x="350" y="370"/>
  <use xlink:href="#\" x="370" y="370"/>
  <use xlink:href="#/" x="420" y="370"/>
  <use xlink:href="#/" x="450" y="370"/>
  <use xlink:href="#\" x="500" y="370"/>
  <use xlink:href="#/" x="520" y="370"/>
  <use xlink:href="#\" x="570" y="370"/>
  <use xlink:href="#\" x="590" y="370"/>
  <use xlink:href="#/" x="610" y="370"/>
  <use xlink:href="#\" x="660" y="370"/>
  <use xlink:href="#/" x="680" y="370"/>
  <use xlink:href="#\" x="750" y="370"/>
  <use xlink:href="#\" x="130" y="380"/>
  <use xlink:href="#/" x="150" y="380"/>
  <use xlink:href="#\" x="180" y="380"/>
  <use xlink:href="#/" x="200" y="380"/>
  <use xlink:href="#\" x="230" y="380"/>
  <use xlink:href="#\" x="280" y="380"/>
  <use xlink:href="#\" x="330" y="380"/>
  <use xlink:href="#\" x="380" y="380"/>
  <use xlink:href="#\" x="430" y="380"/>
  <use xlink:href="#\" x="440" y="380"/>
  <use xlink:href="#\" x="490" y="380"/>
  <use xlink:href="#\" x="540" y="380"/>
  <use xlink:href="#\" x="590" y="380"/>
  <use xlink:href="#\" x="640" y="380"/>
  <use xlink:href="#/" x="670" y="380"/>
  <use xlink:href="#\" x="690" y="380"/>
  <use xlink:href="#/" x="720" y="380"/>
  <use xlink:href="#\" x="740" y="380"/>
  <use xlink:href="#\" x="150" y="390"/>
  <use xlink:href="#/" x="190" y="390"/>
  <use xlink:href="#/" x="230" y="390"/>
  <use xlink:href="#\" x="240" y="390"/>
  <use xlink:href="#\" x="280" y="390"/>
  <use xlink:href="#\" x="320" y="390"/>
  <use xlink:href="#/" x="360" y="390"/>
  <use xlink:href="#/" x="400" y="390"/>
  <use xlink:href="#\" x="410" y="390"/>
  <use xlink:href="#\" x="460" y="390"/>
  <use xlink:href="#/" x="470" y="390"/>
  <use xlink:href="#/" x="510" y="390"/>
  <use xlink:href="#\" x="550" y="390"/>
  <use xlink:href="#\" x="590" y="390"/>
  <use xlink:href="#\" x="630" y="390"/>
  <use xlink:href="#/" x="640" y="390"/>
  <use xlink:href="#/" x="680" y="390"/>
  <use xlink:href="#\" x="720" y="390"/>
  <use xlink:href="#/" x="120" y="400"/>
  <use xlink:href="#\" x="130" y="400"/>
  <use xlink:href="#\" x="140" y="400"/>
  <use xlink:href="#/" x="250" y="400"/>
  <use xlink:href="#/" x="260" y="400"/>
  <use xlink:href="#\" x="270" y="400"/>
  <use xlink:href="#\" x="280" y="400"/>
  <use xlink:href="#/" x="390" y="400"/>
  <use xlink:href="#/" x="400" y="400"/>
  <use xlink:href="#\" x="410" y="400"/>
  <use xlink:href="#\" x="420" y="400"/>
  <use xlink:href="#\" x="450" y="400"/>
  <use xlink:href="#\" x="460" y="400"/>
  <use xlink:href="#/" x="470" y="400"/>
  <use xlink:href="#/" x="480" y="400"/>
  <use xlink:href="#\" x="590" y="400"/>
  <use xlink:href="#\" x="600" y="400"/>
  <use xlink:href="#/" x="610" y="400"/>
  <use xlink:href="#/" x="620" y="400"/>
  <use xlink:href="#\" x="730" y="400"/>
  <use xlink:href="#\" x="740" y="400"/>
  <use xlink:href="#/" x="750" y="400"/>
  <use xlink:href="#\" x="180" y="410"/>
  <use xlink:href="#/" x="190" y="410"/>
  <use xlink:href="#/" x="200" y="410"/>
  <use xlink:href="#\" x="280" y="410"/>
  <use xlink:href="#\" x="290" y="410"/>
  <use xlink:href="#/" x="300" y="410"/>
  <use xlink:href="#/" x="310" y="410"/>
  <use xlink:href="#\" x="390" y="410"/>
  <use xlink:href="#\" x="400" y="410"/>
  <use xlink:href="#/" x="410" y="410"/>
  <use xlink:href="#/" x="460" y="410"/>
  <use xlink:href="#\" x="470" y="410"/>
  <use xlink:href="#\" x="480" y="410"/>
  <use xlink:href="#/" x="560" y="410"/>
  <use xlink:href="#/" x="570" y="410"/>
  <use xlink:href="#\" x="580" y="410"/>
  <use xlink:href="#\" x="590" y="410"/>
  <use xlink:href="#/" x="670" y="410"/>
  <use xlink:href="#/" x="680" y="410"/>
  <use xlink:href="#\" x="690" y="410"/>
  <use xlink:href="#/" x="130" y="420"/>
  <use xlink:href="#/" x="170" y="420"/>
  <use xlink:href="#/" x="210" y="420"/>
  <use xlink:href="#/" x="250" y="420"/>
  <use xlink:href="#/" x="290" y="420"/>
  <use xlink:href="#/" x="330" y="420"/>
  <use xlink:href="#\" x="360" y="420"/>
  <use xlink:href="#/" x="370" y="420"/>
  <use xlink:href="#\" x="400" y="420"/>
  <use xlink:href="#\" x="470" y="420"/>
  <use xlink:href="#/" x="500" y="420"/>
  <use xlink:href="#\" x="510" y="420"/>
  <use xlink:href="#/" x="540" y="420"/>
  <use xlink:href="#/" x="580" y="420"/>
  <use xlink:href="#/" x="620" y="420"/>
  <use xlink:href="#/" x="660" y="420"/>
  <use xlink:href="#/" x="700" y="420"/>
  <use xlink:href="#/" x="740" y="420"/>
  <use xlink:href="#/" x="120" y="430"/>
  <use xlink:href="#\" x="140" y="430"/>
  <use xlink:href="#/" x="190" y="430"/>
  <use xlink:href="#\" x="210" y="430"/>
  <use xlink:href="#/" x="240" y="430"/>
  <use xlink:href="#\" x="260" y="430"/>
  <use xlink:href="#/" x="310" y="430"/>
  <use xlink:href="#\" x="330" y="430"/>
  <use xlink:href="#\" x="380" y="430"/>
  <use xlink:href="#/" x="430" y="430"/>
  <use xlink:href="#/" x="440" y="430"/>
  <use xlink:href="#\" x="490" y="430"/>
  <use xlink:href="#\" x="540" y="430"/>
  <use xlink:href="#/" x="560" y="430"/>
  <use xlink:href="#\" x="610" y="430"/>
  <use xlink:href="#/" x="630" y="430"/>
  <use xlink:href="#\" x="660" y="430"/>
  <use xlink:href="#/" x="680" y="430"/>
  <use xlink:href="#\" x="730" y="430"/>
  <use xlink:href="#/" x="750" y="430"/>
  <use xlink:href="#/" x="120" y="440"/>
  <use xlink:href="#\" x="140" y="440"/>
  <use xlink:href="#/" x="190" y="440"/>
  <use xlink:href="#\" x="210" y="440"/>
  <use xlink:href="#/" x="240" y="440"/>
  <use xlink:href="#\" x="260" y="440"/>
  <use xlink:href="#/" x="310" y="440"/>
  <use xlink:href="#\" x="330" y="440"/>
  <use xlink:href="#\" x="380" y="440"/>
  <use xlink:href="#/" x="430" y="440"/>
  <use xlink:href="#/" x="440" y="440"/>
  <use xlink:href="#\" x="490" y="440"/>
  <use xlink:href="#\" x="540" y="440"/>
  <use xlink:href="#/" x="560" y="440"/>
  <use xlink:href="#\" x="610" y="440"/>
  <use xlink:href="#/" x="630" y="440"/>
  <use xlink:href="#\" x="660" y="440"/>
  <use xlink:href="#/" x="680" y="440"/>
  <use xlink:href="#\" x="730" y="440"/>
  <use xlink:href="#/" x="750" y="440"/>
  <use xlink:href="#/" x="130" y="450"/>
  <use xlink:href="#/" x="170" y="450"/>
  <use xlink:href="#/" x="210" y="450"/>
  <use xlink:href="#/" x="250" y="450"/>
  <use xlink:href="#/" x="290" y="450"/>
  <use xlink:href="#/" x="330" y="450"/>
  <use xlink:href="#\" x="360" y="450"/>
  <use xlink:href="#/" x="370" y="450"/>
  <use xlink:href="#\" x="400" y="450"/>
  <use xlink:href="#\" x="470" y="450"/>
  <use xlink:href="#/" x="500" y="450"/>
  <use xlink:href="#\" x="510" y="450"/>
  <use xlink:href="#/" x="540" y="450"/>
  <use xlink:href="#/" x="580" y="450"/>
  <use xlink:href="#/" x="620" y="450"/>
  <use xlink:href="#/" x="660" y="450"/>
  <use xlink:href="#/" x="700" y="450"/>
  <use xlink:href="#/" x="740" y="450"/>
  <use xlink:href="#\" x="180" y="460"/>
  <use xlink:href="#/" x="190" y="460"/>
  <use xlink:href="#/" x="200" y="460"/>
  <use xlink:href="#\" x="280" y="460"/>
  <use xlink:href="#\" x="290" y="460"/>
  <use xlink:href="#/" x="300" y="460"/>
  <use xlink:href="#/" x="310" y="460"/>
  <use xlink:href="#\" x="390" y="460"/>
  <use xlink:href="#\" x="400" y="460"/>
  <use xlink:href="#/" x="410" y="460"/>
  <use xlink:href="#/" x="460" y="460"/>
  <use xlink:href="#\" x="470" y="460"/>
  <use xlink:href="#\" x="480" y="460"/>
  <use xlink:href="#/" x="560" y="460"/>
  <use xlink:href="#/" x="570" y="460"/>
  <use xlink:href="#\" x="580" y="460"/>
  <use xlink:href="#\" x="590" y="460"/>
  <use xlink:href="#/" x="670" y="460"/>
  <use xlink:href="#/" x="680" y="460"/>
  <use xlink:href="#\" x="690" y="460"/>
  <use xlink:href="#/" x="120" y="470"/>
  <use xlink:href="#\" x="130" y="470"/>
  <use xlink:href="#\" x="140" y="470"/>
  <use xlink:href="#/" x="250" y="470"/>
  <use xlink:href="#/" x="260" y="470"/>
  <use xlink:href="#\" x="270" y="470"/>
  <use xlink:href="#\" x="280" y="470"/>
  <use xlink:href="#/" x="390" y="470"/>
  <use xlink:href="#/" x="400" y="470"/>
  <use xlink:href="#\" x="410" y="470"/>
  <use xlink:href="#\" x="420" y="470"/>
  <use xlink:href="#\" x="450" y="470"/>
  <use xlink:href="#\" x="460" y="470"/>
  <use xlink:href="#/" x="470" y="470"/>
  <use xlink:href="#/" x="480" y="470"/>
  <use xlink:href="#\" x="590" y="470"/>
  <use xlink:href="#\" x="600" y="470"/>
  <use xlink:href="#/" x="610" y="470"/>
  <use xlink:href="#/" x="620" y="470"/>
  <use xlink:href="#\" x="730" y="470"/>
  <use xlink:href="#\" x="740" y="470"/>
  <use xlink:href="#/" x="750" y="470"/>
  <use xlink:href="#\" x="150" y="480"/>
  <use xlink:href="#/" x="190" y="480"/>
  <use xlink:href="#/" x="230" y="480"/>
  <use xlink:href="#\" x="240" y="480"/>
  <use xlink:href="#\" x="280" y="480"/>
  <use xlink:href="#\" x="320" y="480"/>
  <use xlink:href="#/" x="360" y="480"/>
  <use xlink:href="#/" x="400" y="480"/>
  <use xlink:href="#\" x="410" y="480"/>
  <use xlink:href="#\" x="460" y="480"/>
  <use xlink:href="#/" x="470" y="480"/>
  <use xlink:href="#/" x="510" y="480"/>
  <use xlink:href="#\" x="550" y="480"/>
  <use xlink:href="#\" x="590" y="480"/>
  <use xlink:href="#\" x="630" y="480"/>
  <use xlink:href="#/" x="640" y="480"/>
  <use xlink:href="#/" x="680" y="480"/>
  <use xlink:href="#\" x="720" y="480"/>
  <use xlink:href="#\" x="130" y="490"/>
  <use xlink:href="#/" x="150" y="490"/>
  <use xlink:href="#\" x="180" y="490"/>
  <use xlink:href="#/" x="200" y="490"/>
  <use xlink:href="#\" x="230" y="490"/>
  <use xlink:href="#\" x="280" y="490"/>
  <use xlink:href="#\" x="330" y="490"/>
  <use xlink:href="#\" x="380" y="490"/>
  <use xlink:href="#\" x="430" y="490"/>
  <use xlink:href="#\" x="440" y="490"/>
  <use xlink:href="#\" x="490" y="490"/>
  <use xlink:href="#\" x="540" y="490"/>
  <use xlink:href="#\" x="590" y="490"/>
  <use xlink:href="#\" x="640" y="490"/>
  <use xlink:href="#/" x="670" y="490"/>
  <use xlink:href="#\" x="690" y="490"/>
  <use xlink:href="#/" x="720" y="490"/>
  <use xlink:href="#\" x="740" y="490"/>
  <use xlink:href="#\" x="120" y="500"/>
  <use xlink:href="#/" x="190" y="500"/>
  <use xlink:href="#\" x="210" y="500"/>
  <use xlink:href="#/" x="260" y="500"/>
  <use xlink:href="#\" x="280" y="500"/>
  <use xlink:href="#\" x="300" y="500"/>
  <use xlink:href="#/" x="350" y="500"/>
  <use xlink:href="#\" x="370" y="500"/>
  <use xlink:href="#/" x="420" y="500"/>
  <use xlink:href="#/" x="450" y="500"/>
  <use xlink:href="#\" x="500" y="500"/>
  <use xlink:href="#/" x="520" y="500"/>
  <use xlink:href="#\" x="570" y="500"/>
  <use xlink:href="#\" x="590" y="500"/>
  <use xlink:href="#/" x="610" y="500"/>
  <use xlink:href="#\" x="660" y="500"/>
  <use xlink:href="#/" x="680" y="500"/>
  <use xlink:href="#\" x="750" y="500"/>
  <use xlink:href="#\" x="130" y="510"/>
  <use xlink:href="#\" x="170" y="510"/>
  <use xlink:href="#/" x="210" y="510"/>
  <use xlink:href="#\" x="240" y="510"/>
  <use xlink:href="#/" x="280" y="510"/>
  <use xlink:href="#/" x="320" y="510"/>
  <use xlink:href="#\" x="350" y="510"/>
  <use xlink:href="#/" x="390" y="510"/>
  <use xlink:href="#\" x="420" y="510"/>
  <use xlink:href="#\" x="450" y="510"/>
  <use xlink:href="#/" x="480" y="510"/>
  <use xlink:href="#\" x="520" y="510"/>
  <use xlink:href="#/" x="550" y="510"/>
  <use xlink:href="#/" x="590" y="510"/>
  <use xlink:href="#\" x="630" y="510"/>
  <use xlink:href="#/" x="660" y="510"/>
  <use xlink:href="#\" x="700" y="510"/>
  <use xlink:href="#\" x="740" y="510"/>
  <use xlink:href="#\" x="180" y="520"/>
  <use xlink:href="#/" x="190" y="520"/>
  <use xlink:href="#\" x="270" y="520"/>
  <use xlink:href="#/" x="280" y="520"/>
  <use xlink:href="#\" x="360" y="520"/>
  <use xlink:href="#/" x="370" y="520"/>
  <use xlink:href="#/" x="500" y="520"/>
  <use xlink:href="#\" x="510" y="520"/>
  <use xlink:href="#/" x="590" y="520"/>
  <use xlink:href="#\" x="600" y="520"/>
  <use xlink:href="#/" x="680" y="520"/>
  <use xlink:href="#\" x="690" y="520"/>
  <use xlink:href="#\" x="120" y="530"/>
  <use xlink:href="#/" x="270" y="530"/>
  <use xlink:href="#/" x="280" y="530"/>
  <use xlink:href="#/" x="290" y="530"/>
  <use xlink:href="#\" x="300" y="530"/>
  <use xlink:href="#\" x="310" y="530"/>
  <use xlink:href="#\" x="320" y="530"/>
  <use xlink:href="#\" x="550" y="530"/>
  <use xlink:href="#\" x="560" y="530"/>
  <use xlink:href="#\" x="570" y="530"/>
  <use xlink:href="#/" x="580" y="530"/>
  <use xlink:href="#/" x="590" y="530"/>
  <use xlink:href="#/" x="600" y="530"/>
  <use xlink:href="#\" x="750" y="530"/>
  <use xlink:href="#/" x="140" y="540"/>
  <use xlink:href="#\" x="150" y="540"/>
  <use xlink:href="#/" x="190" y="540"/>
  <use xlink:href="#\" x="240" y="540"/>
  <use xlink:href="#/" x="280" y="540"/>
  <use xlink:href="#\" x="290" y="540"/>
  <use xlink:href="#/" x="330" y="540"/>
  <use xlink:href="#\" x="380" y="540"/>
  <use xlink:href="#/" x="420" y="540"/>
  <use xlink:href="#\" x="430" y="540"/>
  <use xlink:href="#\" x="440" y="540"/>
  <use xlink:href="#/" x="450" y="540"/>
  <use xlink:href="#\" x="490" y="540"/>
  <use xlink:href="#/" x="540" y="540"/>
  <use xlink:href="#\" x="580" y="540"/>
  <use xlink:href="#/" x="590" y="540"/>
  <use xlink:href="#\" x="630" y="540"/>
  <use xlink:href="#/" x="680" y="540"/>
  <use xlink:href="#\" x="720" y="540"/>
  <use xlink:href="#/" x="730" y="540"/>
  <use xlink:href="#/" x="150" y="550"/>
  <use xlink:href="#\" x="180" y="550"/>
  <use xlink:href="#/" x="230" y="550"/>
  <use xlink:href="#\" x="260" y="550"/>
  <use xlink:href="#/" x="280" y="550"/>
  <use xlink:href="#/" x="310" y="550"/>
  <use xlink:href="#\" x="340" y="550"/>
  <use xlink:href="#/" x="360" y="550"/>
  <use xlink:href="#\" x="390" y="550"/>
  <use xlink:href="#\" x="480" y="550"/>
  <use xlink:href="#/" x="510" y="550"/>
  <use xlink:href="#\" x="530" y="550"/>
  <use xlink:href="#/" x="560" y="550"/>
  <use xlink:href="#/" x="590" y="550"/>
  <use xlink:href="#\" x="610" y="550"/>
  <use xlink:href="#/" x="640" y="550"/>
  <use xlink:href="#\" x="690" y="550"/>
  <use xlink:href="#/" x="720" y="550"/>
  <use xlink:href="#/" x="170" y="560"/>
  <use xlink:href="#/" x="190" y="560"/>
  <use xlink:href="#\" x="210" y="560"/>
  <use xlink:href="#\" x="230" y="560"/>
  <use xlink:href="#/" x="300" y="560"/>
  <use xlink:href="#/" x="320" y="560"/>
  <use xlink:href="#\" x="340" y="560"/>
  <use xlink:href="#/" x="410" y="560"/>
  <use xlink:href="#/" x="430" y="560"/>
  <use xlink:href="#/" x="440" y="560"/>
  <use xlink:href="#/" x="460" y="560"/>
  <use xlink:href="#\" x="530" y="560"/>
  <use xlink:href="#/" x="550" y="560"/>
  <use xlink:href="#/" x="570" y="560"/>
  <use xlink:href="#\" x="640" y="560"/>
  <use xlink:href="#\" x="660" y="560"/>
  <use xlink:href="#/" x="680" y="560"/>
  <use xlink:href="#/" x="700" y="560"/>
  <use xlink:href="#/" x="140" y="570"/>
  <use xlink:href="#\" x="170" y="570"/>
  <use xlink:href="#/" x="210" y="570"/>
  <use xlink:href="#/" x="240" y="570"/>
  <use xlink:href="#\" x="270" y="570"/>
  <use xlink:href="#/" x="310" y="570"/>
  <use xlink:href="#\" x="340" y="570"/>
  <use xlink:href="#\" x="370" y="570"/>
  <use xlink:href="#/" x="410" y="570"/>
  <use xlink:href="#/" x="460" y="570"/>
  <use xlink:href="#\" x="500" y="570"/>
  <use xlink:href="#\" x="530" y="570"/>
  <use xlink:href="#/" x="560" y="570"/>
  <use xlink:href="#\" x="600" y="570"/>
  <use xlink:href="#/" x="630" y="570"/>
  <use xlink:href="#/" x="660" y="570"/>
  <use xlink:href="#\" x="700" y="570"/>
  <use xlink:href="#/" x="730" y="570"/>
  <use xlink:href="#/" x="120" y="580"/>
  <use xlink:href="#\" x="180" y="580"/>
  <use xlink:href="#/" x="190" y="580"/>
  <use xlink:href="#\" x="260" y="580"/>
  <use xlink:href="#/" x="270" y="580"/>
  <use xlink:href="#\" x="330" y="580"/>
  <use xlink:href="#/" x="340" y="580"/>
  <use xlink:href="#\" x="410" y="580"/>
  <use xlink:href="#/" x="420" y="580"/>
  <use xlink:href="#/" x="450" y="580"/>
  <use xlink:href="#\" x="460" y="580"/>
  <use xlink:href="#/" x="530" y="580"/>
  <use xlink:href="#\" x="540" y="580"/>
  <use xlink:href="#/" x="600" y="580"/>
  <use xlink:href="#\" x="610" y="580"/>
  <use xlink:href="#/" x="680" y="580"/>
  <use xlink:href="#\" x="690" y="580"/>
  <use xlink:href="#/" x="750" y="580"/>
  <use xlink:href="#/" x="320" y="590"/>
  <use xlink:href="#/" x="330" y="590"/>
  <use xlink:href="#/" x="340" y="590"/>
  <use xlink:href="#/" x="350" y="590"/>
  <use xlink:href="#/" x="360" y="590"/>
  <use xlink:href="#\" x="370" y="590"/>
  <use xlink:href="#\" x="380" y="590"/>
  <use xlink:href="#\" x="390" y="590"/>
  <use xlink:href="#\" x="400" y="590"/>
  <use xlink:href="#\" x="410" y="590"/>
  <use xlink:href="#\" x="460" y="590"/>
  <use xlink:href="#\" x="470" y="590"/>
  <use xlink:href="#\" x="480" y="590"/>
  <use xlink:href="#\" x="490" y="590"/>
  <use xlink:href="#\" x="500" y="590"/>
  <use xlink:href="#/" x="510" y="590"/>
  <use xlink:href="#/" x="520" y="590"/>
  <use xlink:href="#/" x="530" y="590"/>
  <use xlink:href="#/" x="540" y="590"/>
  <use xlink:href="#/" x="550" y="590"/>
  <use xlink:href="#/" x="140" y="600"/>
  <use xlink:href="#/" x="190" y="600"/>
  <use xlink:href="#/" x="240" y="600"/>
  <use xlink:href="#\" x="250" y="600"/>
  <use xlink:href="#/" x="290" y="600"/>
  <use xlink:href="#\" x="300" y="600"/>
  <use xlink:href="#/" x="340" y="600"/>
  <use xlink:href="#\" x="350" y="600"/>
  <use xlink:href="#\" x="400" y="600"/>
  <use xlink:href="#\" x="470" y="600"/>
  <use xlink:href="#\" x="520" y="600"/>
  <use xlink:href="#/" x="530" y="600"/>
  <use xlink:href="#\" x="570" y="600"/>
  <use xlink:href="#/" x="580" y="600"/>
  <use xlink:href="#\" x="620" y="600"/>
  <use xlink:href="#/" x="630" y="600"/>
  <use xlink:href="#/" x="680" y="600"/>
  <use xlink:href="#/" x="730" y="600"/>
  <use xlink:href="#/" x="120" y="610"/>
  <use xlink:href="#\" x="150" y="610"/>
  <use xlink:href="#\" x="180" y="610"/>
  <use xlink:href="#/" x="230" y="610"/>
  <use xlink:href="#/" x="260" y="610"/>
  <use xlink:href="#\" x="290" y="610"/>
  <use xlink:href="#\" x="320" y="610"/>
  <use xlink:href="#/" x="370" y="610"/>
  <use xlink:href="#/" x="400" y="610"/>
  <use xlink:href="#\" x="430" y="610"/>
  <use xlink:href="#\" x="440" y="610"/>
  <use xlink:href="#/" x="470" y="610"/>
  <use xlink:href="#/" x="500" y="610"/>
  <use xlink:href="#\" x="550" y="610"/>
  <use xlink:href="#\" x="580" y="610"/>
  <use xlink:href="#/" x="610" y="610"/>
  <use xlink:href="#/" x="640" y="610"/>
  <use xlink:href="#\" x="690" y="610"/>
  <use xlink:href="#\" x="720" y="610"/>
  <use xlink:href="#/" x="750" y="610"/>
  <use xlink:href="#/" x="150" y="620"/>
  <use xlink:href="#/" x="170" y="620"/>
  <use xlink:href="#/" x="190" y="620"/>
  <use xlink:href="#\" x="210" y="620"/>
  <use xlink:href="#\" x="230" y="620"/>
  <use xlink:href="#\" x="250" y="620"/>
  <use xlink:href="#\" x="270" y="620"/>
  <use xlink:href="#/" x="400" y="620"/>
  <use xlink:href="#/" x="420" y="620"/>
  <use xlink:href="#/" x="450" y="620"/>
  <use xlink:href="#/" x="470" y="620"/>
  <use xlink:href="#\" x="600" y="620"/>
  <use xlink:href="#\" x="620" y="620"/>
  <use xlink:href="#\" x="640" y="620"/>
  <use xlink:href="#\" x="660" y="620"/>
  <use xlink:href="#/" x="680" y="620"/>
  <use xlink:href="#/" x="700" y="620"/>
  <use xlink:href="#/" x="720" y="620"/>
  <use xlink:href="#\" x="140" y="630"/>
  <use xlink:href="#\" x="170" y="630"/>
  <use xlink:href="#/" x="240" y="630"/>
  <use xlink:href="#/" x="270" y="630"/>
  <use xlink:href="#/" x="300" y="630"/>
  <use xlink:href="#\" x="330" y="630"/>
  <use xlink:href="#\" x="360" y="630"/>
  <use xlink:href="#\" x="390" y="630"/>
  <use xlink:href="#/" x="430" y="630"/>
  <use xlink:href="#/" x="440" y="630"/>
  <use xlink:href="#\" x="480" y="630"/>
  <use xlink:href="#\" x="510" y="630"/>
  <use xlink:href="#\" x="540" y="630"/>
  <use xlink:href="#/" x="570" y="630"/>
  <use xlink:href="#/" x="600" y="630"/>
  <use xlink:href="#/" x="630" y="630"/>
  <use xlink:href="#\" x="700" y="630"/>
  <use xlink:href="#\" x="730" y="630"/>
  <use xlink:href="#\" x="120" y="640"/>
  <use xlink:href="#/" x="130" y="640"/>
  <use xlink:href="#\" x="180" y="640"/>
  <use xlink:href="#/" x="190" y="640"/>
  <use xlink:href="#\" x="250" y="640"/>
  <use xlink:href="#/" x="260" y="640"/>
  <use xlink:href="#\" x="310" y="640"/>
  <use xlink:href="#/" x="320" y="640"/>
  <use xlink:href="#\" x="380" y="640"/>
  <use xlink:href="#/" x="390" y="640"/>
  <use xlink:href="#/" x="480" y="640"/>
  <use xlink:href="#\" x="490" y="640"/>
  <use xlink:href="#/" x="550" y="640"/>
  <use xlink:href="#\" x="560" y="640"/>
  <use xlink:href="#/" x="610" y="640"/>
  <use xlink:href="#\" x="620" y="640"/>
  <use xlink:href="#/" x="680" y="640"/>
  <use xlink:href="#\" x="690" y="640"/>
  <use xlink:href="#/" x="740" y="640"/>
  <use xlink:href="#\" x="750" y="640"/>
  <use xlink:href="#/" x="130" y="660"/>
  <use xlink:href="#\" x="140" y="660"/>
  <use xlink:href="#/" x="190" y="660"/>
  <use xlink:href="#\" x="200" y="660"/>
  <use xlink:href="#\" x="250" y="660"/>
  <use xlink:href="#/" x="300" y="660"/>
  <use xlink:href="#\" x="310" y="660"/>
  <use xlink:href="#/" x="360" y="660"/>
  <use xlink:href="#\" x="370" y="660"/>
  <use xlink:href="#/" x="420" y="660"/>
  <use xlink:href="#\" x="430" y="660"/>
  <use xlink:href="#\" x="440" y="660"/>
  <use xlink:href="#/" x="450" y="660"/>
  <use xlink:href="#\" x="500" y="660"/>
  <use xlink:href="#/" x="510" y="660"/>
  <use xlink:href="#\" x="560" y="660"/>
  <use xlink:href="#/" x="570" y="660"/>
  <use xlink:href="#\" x="620" y="660"/>
  <use xlink:href="#\" x="670" y="660"/>
  <use xlink:href="#/" x="680" y="660"/>
  <use xlink:href="#\" x="730" y="660"/>
  <use xlink:href="#/" x="740" y="660"/>
  <use xlink:href="#\" x="120" y="670"/>
  <use xlink:href="#\" x="150" y="670"/>
  <use xlink:href="#\" x="180" y="670"/>
  <use xlink:href="#\" x="210" y="670"/>
  <use xlink:href="#/" x="380" y="670"/>
  <use xlink:href="#/" x="410" y="670"/>
  <use xlink:href="#/" x="460" y="670"/>
  <use xlink:href="#/" x="490" y="670"/>
  <use xlink:href="#\" x="660" y="670"/>
  <use xlink:href="#\" x="690" y="670"/>
  <use xlink:href="#\" x="720" y="670"/>
  <use xlink:href="#\" x="750" y="670"/>
  <use xlink:href="#/" x="130" y="680"/>
  <use xlink:href="#/" x="150" y="680"/>
  <use xlink:href="#/" x="170" y="680"/>
  <use xlink:href="#/" x="190" y="680"/>
  <use xlink:href="#/" x="210" y="680"/>
  <use xlink:href="#/" x="230" y="680"/>
  <use xlink:href="#/" x="250" y="680"/>
  <use xlink:href="#/" x="270" y="680"/>
  <use xlink:href="#/" x="290" y="680"/>
  <use xlink:href="#/" x="310" y="680"/>
  <use xlink:href="#/" x="330" y="680"/>
  <use xlink:href="#/" x="350" y="680"/>
  <use xlink:href="#/" x="370" y="680"/>
  <use xlink:href="#/" x="390" y="680"/>
  <use xlink:href="#/" x="410" y="680"/>
  <use xlink:href="#/" x="430" y="680"/>
  <use xlink:href="#/" x="440" y="680"/>
  <use xlink:href="#/" x="460" y="680"/>
  <use xlink:href="#/" x="480" y="680"/>
  <use xlink:href="#/" x="500" y="680"/>
  <use xlink:href="#/" x="520" y="680"/>
  <use xlink:href="#/" x="540" y="680"/>
  <use xlink:href="#/" x="560" y="680"/>
  <use xlink:href="#/" x="580" y="680"/>
  <use xlink:href="#/" x="600" y="680"/>
  <use xlink:href="#/" x="620" y="680"/>
  <use xlink:href="#/" x="640" y="680"/>
  <use xlink:href="#/" x="660" y="680"/>
  <use xlink:href="#/" x="680" y="680"/>
  <use xlink:href="#/" x="700" y="680"/>
  <use xlink:href="#/" x="720" y="680"/>
  <use xlink:href="#/" x="740" y="680"/>
  <use xlink:href="#\" x="200" y="690"/>
  <use xlink:href="#\" x="230" y="690"/>
  <use xlink:href="#\" x="260" y="690"/>
  <use xlink:href="#\" x="290" y="690"/>
  <use xlink:href="#\" x="320" y="690"/>
  <use xlink:href="#\" x="350" y="690"/>
  <use xlink:href="#\" x="380" y="690"/>
  <use xlink:href="#\" x="410" y="690"/>
  <use xlink:href="#\" x="460" y="690"/>
  <use xlink:href="#\" x="490" y="690"/>
  <use xlink:href="#\" x="520" y="690"/>
  <use xlink:href="#\" x="550" y="690"/>
  <use xlink:href="#\" x="580" y="690"/>
  <use xlink:href="#\" x="610" y="690"/>
  <use xlink:href="#\" x="640" y="690"/>
  <use xlink:href="#\" x="670" y="690"/>
  <use xlink:href="#\" x="130" y="700"/>
  <use xlink:href="#/" x="190" y="700"/>
  <use xlink:href="#\" x="240" y="700"/>
  <use xlink:href="#/" x="250" y="700"/>
  <use xlink:href="#\" x="300" y="700"/>
  <use xlink:href="#/" x="310" y="700"/>
  <use xlink:href="#\" x="360" y="700"/>
  <use xlink:href="#/" x="420" y="700"/>
  <use xlink:href="#/" x="450" y="700"/>
  <use xlink:href="#\" x="510" y="700"/>
  <use xlink:href="#/" x="560" y="700"/>
  <use xlink:href="#\" x="570" y="700"/>
  <use xlink:href="#/" x="620" y="700"/>
  <use xlink:href="#\" x="630" y="700"/>
  <use xlink:href="#/" x="680" y="700"/>
  <use xlink:href="#\" x="740" y="700"/>
  <use xlink:href="#/" x="120" y="720"/>
  <use xlink:href="#\" x="130" y="720"/>
  <use xlink:href="#/" x="190" y="720"/>
  <use xlink:href="#\" x="200" y="720"/>
  <use xlink:href="#/" x="250" y="720"/>
  <use xlink:href="#\" x="260" y="720"/>
  <use xlink:href="#/" x="320" y="720"/>
  <use xlink:href="#\" x="330" y="720"/>
  <use xlink:href="#/" x="380" y="720"/>
  <use xlink:href="#\" x="390" y="720"/>
  <use xlink:href="#\" x="480" y="720"/>
  <use xlink:href="#/" x="490" y="720"/>
  <use xlink:href="#\" x="540" y="720"/>
  <use xlink:href="#/" x="550" y="720"/>
  <use xlink:href="#\" x="610" y="720"/>
  <use xlink:href="#/" x="620" y="720"/>
  <use xlink:href="#\" x="670" y="720"/>
  <use xlink:href="#/" x="680" y="720"/>
  <use xlink:href="#\" x="740" y="720"/>
  <use xlink:href="#/" x="750" y="720"/>
  <use xlink:href="#/" x="140" y="730"/>
  <use xlink:href="#\" x="210" y="730"/>
  <use xlink:href="#\" x="240" y="730"/>
  <use xlink:href="#/" x="270" y="730"/>
  <use xlink:href="#/" x="300" y="730"/>
  <use xlink:href="#/" x="330" y="730"/>
  <use xlink:href="#\" x="400" y="730"/>
  <use xlink:href="#\" x="430" y="730"/>
  <use xlink:href="#\" x="440" y="730"/>
  <use xlink:href="#\" x="470" y="730"/>
  <use xlink:href="#/" x="540" y="730"/>
  <use xlink:href="#/" x="570" y="730"/>
  <use xlink:href="#/" x="600" y="730"/>
  <use xlink:href="#\" x="630" y="730"/>
  <use xlink:href="#\" x="660" y="730"/>
  <use xlink:href="#/" x="730" y="730"/>
  <use xlink:href="#\" x="130" y="740"/>
  <use xlink:href="#\" x="150" y="740"/>
  <use xlink:href="#\" x="170" y="740"/>
  <use xlink:href="#/" x="190" y="740"/>
  <use xlink:href="#/" x="210" y="740"/>
  <use xlink:href="#/" x="230" y="740"/>
  <use xlink:href="#\" x="360" y="740"/>
  <use xlink:href="#\" x="380" y="740"/>
  <use xlink:href="#\" x="400" y="740"/>
  <use xlink:href="#/" x="420" y="740"/>
  <use xlink:href="#/" x="450" y="740"/>
  <use xlink:href="#\" x="470" y="740"/>
  <use xlink:href="#\" x="490" y="740"/>
  <use xlink:href="#\" x="510" y="740"/>
  <use xlink:href="#/" x="640" y="740"/>
  <use xlink:href="#/" x="660" y="740"/>
  <use xlink:href="#/" x="680" y="740"/>
  <use xlink:href="#\" x="700" y="740"/>
  <use xlink:href="#\" x="720" y="740"/>
  <use xlink:href="#\" x="740" y="740"/>
  <use xlink:href="#/" x="120" y="750"/>
  <use xlink:href="#/" x="150" y="750"/>
  <use xlink:href="#\" x="200" y="750"/>
  <use xlink:href="#\" x="230" y="750"/>
  <use xlink:href="#/" x="260" y="750"/>
  <use xlink:href="#/" x="290" y="750"/>
  <use xlink:href="#\" x="340" y="750"/>
  <use xlink:href="#\" x="370" y="750"/>
  <use xlink:href="#/" x="400" y="750"/>
  <use xlink:href="#/" x="430" y="750"/>
  <use xlink:href="#/" x="440" y="750"/>
  <use xlink:href="#/" x="470" y="750"/>
  <use xlink:href="#\" x="500" y="750"/>
  <use xlink:href="#\" x="530" y="750"/>
  <use xlink:href="#/" x="580" y="750"/>
  <use xlink:href="#/" x="610" y="750"/>
  <use xlink:href="#\" x="640" y="750"/>
  <use xlink:href="#\" x="670" y="750"/>
  <use xlink:href="#/" x="720" y="750"/>
  <use xlink:href="#/" x="750" y="750"/>
</svg>
