<svg xmlns="http://www.w3.org/2000/svg" xmlns:xlink="http://www.w3.org/1999/xlink" xmlns:jfreesvg="http://www.jfree.org/jfreesvg/svg" width="880" height="880" text-rendering="auto" shape-rendering="auto">
  <defs>
    <g id="O">
      <ellipse cx="5" cy="5" rx="5" ry="5" style="stroke-width: 2.0;stroke: rgb(0,0,0);stroke-opacity: 1.0;stroke-linecap: square;; fill: none" transform="matrix(1,0,0,1,0,0)"/>
    </g>
    <g id="+">
      <line x1="5" y1="0" x2="5" y2="10" style="stroke-width: 2.0;stroke: rgb(0,0,0);stroke-opacity: 1.0;stroke-linecap: square;" transform="matrix(1,0,0,1,0,0)"/>
      <line x1="0" y1="5" x2="10" y2="5" style="stroke-width: 2.0;stroke: rgb(0,0,0);stroke-opacity: 1.0;stroke-linecap: square;" transform="matrix(1,0,0,1,0,0)"/>
    </g>
    <g id="X">
      <line x1="10" y1="0" x2="0" y2="10" style="stroke-width: 2.0;stroke: rgb(0,0,0);stroke-opacity: 1.0;stroke-linecap: square;" transform="matrix(1,0,0,1,0,0)"/>
      <line x1="0" y1="0" x2="10" y2="10" style="stroke-width: 2.0;stroke: rgb(0,0,0);stroke-opacity: 1.0;stroke-linecap: square;" transform="matrix(1,0,0,1,0,0)"/>
    </g>
    <g id="|">
      <line x1="5" y1="0" x2="5" y2="10" style="stroke-width: 2.0;stroke: rgb(0,0,0);stroke-opacity: 1.0;stroke-linecap: square;" transform="matrix(1,0,0,1,0,0)"/>
    </g>
    <g id="-">
      <line x1="0" y1="5" x2="10" y2="5" style="stroke-width: 2.0;stroke: rgb(0,0,0);stroke-opacity: 1.0;stroke-linecap: square;" transform="matrix(1,0,0,1,0,0)"/>
    </g>
    <g id="\">
      <line x1="0" y1="0" x2="10" y2="10" style="stroke-width: 2.0;stroke: rgb(0,0,0);stroke-opacity: 1.0;stroke-linecap: square;" transform="matrix(1,0,0,1,0,0)"/>
    </g>
    <g id="/">
      <line x1="10" y1="0" x2="0" y2="10" style="stroke-width: 2.0;stroke: rgb(0,0,0);stroke-opacity: 1.0;stroke-linecap: square;" transform="matrix(1,0,0,1,0,0)"/>
    </g>
    <g id="#">
      <rect x="0" y="0" width="10" height="10" style="fill: rgb(0,0,0); fill-opacity: 1.0" transform="matrix(1,0,0,1,0,0)"/>
    </g>
  </defs>
  <rect x="0" y="0" width="880" height="880" style="fill: rgb(255,255,255); fill-opacity: 1.0" transform="matrix(1,0,0,1,0,0)"/>
  <use xlink:href="#\" x="140" y="120"/>
  <use xlink:href="#\" x="270" y="120"/>
  <use xlink:href="#\" x="400" y="120"/>
  <use xlink:href="#\" x="420" y="120"/>
  <use xlink:href="#\" x="450" y="120"/>
  <use xlink:href="#\" x="470" y="120"/>
  <use xlink:href="#\" x="600" y="120"/>
  <use xlink:href="#\" x="730" y="120"/>
  <use xlink:href="#\" x="170" y="130"/>
  <use xlink:href="#\" x="180" y="130"/>
  <use xlink:href="#\" x="290" y="130"/>
  <use xlink:href="#\" x="300" y="130"/>
  <use xlink:href="#\" x="420" y="130"/>
  <use xlink:href="#\" x="450" y="130"/>
  <use xlink:href="#\" x="570" y="130"/>
  <use xlink:href="#\" x="580" y="130"/>
  <use xlink:href="#\" x="690" y="130"/>
  <use xlink:href="#\" x="700" y="130"/>
  <use xlink:href="#\" x="120" y="140"/>
  <use xlink:href="#\" x="220" y="140"/>
  <use xlink:href="#\" x="290" y="140"/>
  <use xlink:href="#\" x="320" y="140"/>
  <use xlink:href="#\" x="390" y="140"/>
  <use xlink:href="#\" x="480" y="140"/>
  <use xlink:href="#\" x="550" y="140"/>
  <use xlink:href="#\" x="580" y="140"/>
  <use xlink:href="#\" x="650" y="140"/>
  <use xlink:href="#\" x="750" y="140"/>
  <use xlink:href="#\" x="200" y="150"/>
  <use xlink:href="#\" x="230" y="150"/>
  <use xlink:href="#\" x="260" y="150"/>
  <use xlink:href="#\" x="290" y="150"/>
  <use xlink:href="#\" x="580" y="150"/>
  <use xlink:href="#\" x="610" y="150"/>
  <use xlink:href="#\" x="640" y="150"/>
  <use xlink:href="#\" x="670" y="150"/>
  <use xlink:href="#\" x="280" y="160"/>
  <use xlink:href="#\" x="290" y="160"/>
  <use xlink:href="#\" x="580" y="160"/>
  <use xlink:href="#\" x="590" y="160"/>
  <use xlink:href="#\" x="130" y="170"/>
  <use xlink:href="#\" x="220" y="170"/>
  <use xlink:href="#\" x="290" y="170"/>
  <use xlink:href="#\" x="380" y="170"/>
  <use xlink:href="#\" x="490" y="170"/>
  <use xlink:href="#\" x="580" y="170"/>
  <use xlink:href="#\" x="650" y="170"/>
  <use xlink:href="#\" x="740" y="170"/>
  <use xlink:href="#\" x="130" y="180"/>
  <use xlink:href="#\" x="180" y="180"/>
  <use xlink:href="#\" x="240" y="180"/>
  <use xlink:href="#\" x="290" y="180"/>
  <use xlink:href="#\" x="400" y="180"/>
  <use xlink:href="#\" x="470" y="180"/>
  <use xlink:href="#\" x="580" y="180"/>
  <use xlink:href="#\" x="630" y="180"/>
  <use xlink:href="#\" x="690" y="180"/>
  <use xlink:href="#\" x="740" y="180"/>
  <use xlink:href="#\" x="190" y="190"/>
  <use xlink:href="#\" x="240" y="190"/>
  <use xlink:href="#\" x="290" y="190"/>
  <use xlink:href="#\" x="340" y="190"/>
  <use xlink:href="#\" x="390" y="190"/>
  <use xlink:href="#\" x="480" y="190"/>
  <use xlink:href="#\" x="530" y="190"/>
  <use xlink:href="#\" x="580" y="190"/>
  <use xlink:href="#\" x="630" y="190"/>
  <use xlink:href="#\" x="680" y="190"/>
  <use xlink:href="#\" x="150" y="200"/>
  <use xlink:href="#\" x="220" y="200"/>
  <use xlink:href="#\" x="290" y="200"/>
  <use xlink:href="#\" x="360" y="200"/>
  <use xlink:href="#\" x="510" y="200"/>
  <use xlink:href="#\" x="580" y="200"/>
  <use xlink:href="#\" x="650" y="200"/>
  <use xlink:href="#\" x="720" y="200"/>
  <use xlink:href="#\" x="280" y="210"/>
  <use xlink:href="#\" x="290" y="210"/>
  <use xlink:href="#\" x="300" y="210"/>
  <use xlink:href="#\" x="570" y="210"/>
  <use xlink:href="#\" x="580" y="210"/>
  <use xlink:href="#\" x="590" y="210"/>
  <use xlink:href="#\" x="140" y="220"/>
  <use xlink:href="#\" x="170" y="220"/>
  <use xlink:href="#\" x="200" y="220"/>
  <use xlink:href="#\" x="230" y="220"/>
  <use xlink:href="#\" x="260" y="220"/>
  <use xlink:href="#\" x="290" y="220"/>
  <use xlink:href="#\" x="320" y="220"/>
  <use xlink:href="#\" x="350" y="220"/>
  <use xlink:href="#\" x="380" y="220"/>
  <use xlink:href="#\" x="410" y="220"/>
  <use xlink:href="#\" x="460" y="220"/>
  <use xlink:href="#\" x="490" y="220"/>
  <use xlink:href="#\" x="520" y="220"/>
  <use xlink:href="#\" x="550" y="220"/>
  <use xlink:href="#\" x="580" y="220"/>
  <use xlink:href="#\" x="610" y="220"/>
  <use xlink:href="#\" x="640" y="220"/>
  <use xlink:href="#\" x="670" y="220"/>
  <use xlink:href="#\" x="700" y="220"/>
  <use xlink:href="#\" x="730" y="220"/>
  <use xlink:href="#\" x="150" y="230"/>
  <use xlink:href="#\" x="220" y="230"/>
  <use xlink:href="#\" x="290" y="230"/>
  <use xlink:href="#\" x="360" y="230"/>
  <use xlink:href="#\" x="430" y="230"/>
  <use xlink:href="#\" x="440" y="230"/>
  <use xlink:href="#\" x="510" y="230"/>
  <use xlink:href="#\" x="580" y="230"/>
  <use xlink:href="#\" x="650" y="230"/>
  <use xlink:href="#\" x="720" y="230"/>
  <use xlink:href="#\" x="180" y="240"/>
  <use xlink:href="#\" x="190" y="240"/>
  <use xlink:href="#\" x="290" y="240"/>
  <use xlink:href="#\" x="390" y="240"/>
  <use xlink:href="#\" x="400" y="240"/>
  <use xlink:href="#\" x="470" y="240"/>
  <use xlink:href="#\" x="480" y="240"/>
  <use xlink:href="#\" x="580" y="240"/>
  <use xlink:href="#\" x="680" y="240"/>
  <use xlink:href="#\" x="690" y="240"/>
  <use xlink:href="#\" x="270" y="250"/>
  <use xlink:href="#\" x="290" y="250"/>
  <use xlink:href="#\" x="310" y="250"/>
  <use xlink:href="#\" x="560" y="250"/>
  <use xlink:href="#\" x="580" y="250"/>
  <use xlink:href="#\" x="600" y="250"/>
  <use xlink:href="#\" x="150" y="260"/>
  <use xlink:href="#\" x="220" y="260"/>
  <use xlink:href="#\" x="290" y="260"/>
  <use xlink:href="#\" x="360" y="260"/>
  <use xlink:href="#\" x="430" y="260"/>
  <use xlink:href="#\" x="440" y="260"/>
  <use xlink:href="#\" x="510" y="260"/>
  <use xlink:href="#\" x="580" y="260"/>
  <use xlink:href="#\" x="650" y="260"/>
  <use xlink:href="#\" x="720" y="260"/>
  <use xlink:href="#\" x="120" y="270"/>
  <use xlink:href="#\" x="250" y="270"/>
  <use xlink:href="#\" x="290" y="270"/>
  <use xlink:href="#\" x="420" y="270"/>
  <use xlink:href="#\" x="450" y="270"/>
  <use xlink:href="#\" x="580" y="270"/>
  <use xlink:href="#\" x="620" y="270"/>
  <use xlink:href="#\" x="750" y="270"/>
  <use xlink:href="#\" x="160" y="280"/>
  <use xlink:href="#\" x="210" y="280"/>
  <use xlink:href="#\" x="290" y="280"/>
  <use xlink:href="#\" x="340" y="280"/>
  <use xlink:href="#\" x="420" y="280"/>
  <use xlink:href="#\" x="450" y="280"/>
  <use xlink:href="#\" x="530" y="280"/>
  <use xlink:href="#\" x="580" y="280"/>
  <use xlink:href="#\" x="660" y="280"/>
  <use xlink:href="#\" x="710" y="280"/>
  <use xlink:href="#\" x="130" y="290"/>
  <use xlink:href="#\" x="140" y="290"/>
  <use xlink:href="#\" x="150" y="290"/>
  <use xlink:href="#\" x="160" y="290"/>
  <use xlink:href="#\" x="170" y="290"/>
  <use xlink:href="#\" x="180" y="290"/>
  <use xlink:href="#\" x="190" y="290"/>
  <use xlink:href="#\" x="200" y="290"/>
  <use xlink:href="#\" x="210" y="290"/>
  <use xlink:href="#\" x="220" y="290"/>
  <use xlink:href="#\" x="230" y="290"/>
  <use xlink:href="#\" x="240" y="290"/>
  <use xlink:href="#\" x="250" y="290"/>
  <use xlink:href="#\" x="260" y="290"/>
  <use xlink:href="#\" x="270" y="290"/>
  <use xlink:href="#\" x="280" y="290"/>
  <use xlink:href="#\" x="290" y="290"/>
  <use xlink:href="#\" x="300" y="290"/>
  <use xlink:href="#\" x="310" y="290"/>
  <use xlink:href="#\" x="320" y="290"/>
  <use xlink:href="#\" x="330" y="290"/>
  <use xlink:href="#\" x="540" y="290"/>
  <use xlink:href="#\" x="550" y="290"/>
  <use xlink:href="#\" x="560" y="290"/>
  <use xlink:href="#\" x="570" y="290"/>
  <use xlink:href="#\" x="580" y="290"/>
  <use xlink:href="#\" x="590" y="290"/>
  <use xlink:href="#\" x="600" y="290"/>
  <use xlink:href="#\" x="610" y="290"/>
  <use xlink:href="#\" x="620" y="290"/>
  <use xlink:href="#\" x="630" y="290"/>
  <use xlink:href="#\" x="640" y="290"/>
  <use xlink:href="#\" x="650" y="290"/>
  <use xlink:href="#\" x="660" y="290"/>
  <use xlink:href="#\" x="670" y="290"/>
  <use xlink:href="#\" x="680" y="290"/>
  <use xlink:href="#\" x="690" y="290"/>
  <use xlink:href="#\" x="700" y="290"/>
  <use xlink:href="#\" x="710" y="290"/>
  <use xlink:href="#\" x="720" y="290"/>
  <use xlink:href="#\" x="730" y="290"/>
  <use xlink:href="#\" x="740" y="290"/>
  <use xlink:href="#\" x="130" y="300"/>
  <use xlink:href="#\" x="210" y="300"/>
  <use xlink:href="#\" x="290" y="300"/>
  <use xlink:href="#\" x="370" y="300"/>
  <use xlink:href="#\" x="400" y="300"/>
  <use xlink:href="#\" x="470" y="300"/>
  <use xlink:href="#\" x="500" y="300"/>
  <use xlink:href="#\" x="580" y="300"/>
  <use xlink:href="#\" x="660" y="300"/>
  <use xlink:href="#\" x="740" y="300"/>
  <use xlink:href="#\" x="250" y="310"/>
  <use xlink:href="#\" x="290" y="310"/>
  <use xlink:href="#\" x="330" y="310"/>
  <use xlink:href="#\" x="370" y="310"/>
  <use xlink:href="#\" x="410" y="310"/>
  <use xlink:href="#\" x="460" y="310"/>
  <use xlink:href="#\" x="500" y="310"/>
  <use xlink:href="#\" x="540" y="310"/>
  <use xlink:href="#\" x="580" y="310"/>
  <use xlink:href="#\" x="620" y="310"/>
  <use xlink:href="#\" x="140" y="320"/>
  <use xlink:href="#\" x="220" y="320"/>
  <use xlink:href="#\" x="290" y="320"/>
  <use xlink:href="#\" x="370" y="320"/>
  <use xlink:href="#\" x="500" y="320"/>
  <use xlink:href="#\" x="580" y="320"/>
  <use xlink:href="#\" x="650" y="320"/>
  <use xlink:href="#\" x="730" y="320"/>
  <use xlink:href="#\" x="290" y="330"/>
  <use xlink:href="#\" x="310" y="330"/>
  <use xlink:href="#\" x="330" y="330"/>
  <use xlink:href="#\" x="350" y="330"/>
  <use xlink:href="#\" x="370" y="330"/>
  <use xlink:href="#\" x="390" y="330"/>
  <use xlink:href="#\" x="480" y="330"/>
  <use xlink:href="#\" x="500" y="330"/>
  <use xlink:href="#\" x="520" y="330"/>
  <use xlink:href="#\" x="540" y="330"/>
  <use xlink:href="#\" x="560" y="330"/>
  <use xlink:href="#\" x="580" y="330"/>
  <use xlink:href="#\" x="190" y="340"/>
  <use xlink:href="#\" x="280" y="340"/>
  <use xlink:href="#\" x="370" y="340"/>
  <use xlink:href="#\" x="380" y="340"/>
  <use xlink:href="#\" x="490" y="340"/>
  <use xlink:href="#\" x="500" y="340"/>
  <use xlink:href="#\" x="590" y="340"/>
  <use xlink:href="#\" x="680" y="340"/>
  <use xlink:href="#\" x="220" y="350"/>
  <use xlink:href="#\" x="330" y="350"/>
  <use xlink:href="#\" x="540" y="350"/>
  <use xlink:href="#\" x="650" y="350"/>
  <use xlink:href="#\" x="200" y="360"/>
  <use xlink:href="#\" x="230" y="360"/>
  <use xlink:href="#\" x="260" y="360"/>
  <use xlink:href="#\" x="430" y="360"/>
  <use xlink:href="#\" x="440" y="360"/>
  <use xlink:href="#\" x="610" y="360"/>
  <use xlink:href="#\" x="640" y="360"/>
  <use xlink:href="#\" x="670" y="360"/>
  <use xlink:href="#\" x="300" y="370"/>
  <use xlink:href="#\" x="310" y="370"/>
  <use xlink:href="#\" x="320" y="370"/>
  <use xlink:href="#\" x="330" y="370"/>
  <use xlink:href="#\" x="340" y="370"/>
  <use xlink:href="#\" x="530" y="370"/>
  <use xlink:href="#\" x="540" y="370"/>
  <use xlink:href="#\" x="550" y="370"/>
  <use xlink:href="#\" x="560" y="370"/>
  <use xlink:href="#\" x="570" y="370"/>
  <use xlink:href="#\" x="170" y="380"/>
  <use xlink:href="#\" x="220" y="380"/>
  <use xlink:href="#\" x="340" y="380"/>
  <use xlink:href="#\" x="390" y="380"/>
  <use xlink:href="#\" x="480" y="380"/>
  <use xlink:href="#\" x="530" y="380"/>
  <use xlink:href="#\" x="650" y="380"/>
  <use xlink:href="#\" x="700" y="380"/>
  <use xlink:href="#\" x="140" y="390"/>
  <use xlink:href="#\" x="190" y="390"/>
  <use xlink:href="#\" x="240" y="390"/>
  <use xlink:href="#\" x="330" y="390"/>
  <use xlink:href="#\" x="380" y="390"/>
  <use xlink:href="#\" x="430" y="390"/>
  <use xlink:href="#\" x="440" y="390"/>
  <use xlink:href="#\" x="490" y="390"/>
  <use xlink:href="#\" x="540" y="390"/>
  <use xlink:href="#\" x="630" y="390"/>
  <use xlink:href="#\" x="680" y="390"/>
  <use xlink:href="#\" x="730" y="390"/>
  <use xlink:href="#\" x="120" y="400"/>
  <use xlink:href="#\" x="180" y="400"/>
  <use xlink:href="#\" x="240" y="400"/>
  <use xlink:href="#\" x="300" y="400"/>
  <use xlink:href="#\" x="410" y="400"/>
  <use xlink:href="#\" x="460" y="400"/>
  <use xlink:href="#\" x="570" y="400"/>
  <use xlink:href="#\" x="630" y="400"/>
  <use xlink:href="#\" x="690" y="400"/>
  <use xlink:href="#\" x="750" y="400"/>
  <use xlink:href="#\" x="220" y="410"/>
  <use xlink:href="#\" x="310" y="410"/>
  <use xlink:href="#\" x="400" y="410"/>
  <use xlink:href="#\" x="420" y="410"/>
  <use xlink:href="#\" x="450" y="410"/>
  <use xlink:href="#\" x="470" y="410"/>
  <use xlink:href="#\" x="560" y="410"/>
  <use xlink:href="#\" x="650" y="410"/>
  <use xlink:href="#\" x="120" y="420"/>
  <use xlink:href="#\" x="130" y="420"/>
  <use xlink:href="#\" x="270" y="420"/>
  <use xlink:href="#\" x="280" y="420"/>
  <use xlink:href="#\" x="410" y="420"/>
  <use xlink:href="#\" x="420" y="420"/>
  <use xlink:href="#\" x="450" y="420"/>
  <use xlink:href="#\" x="460" y="420"/>
  <use xlink:href="#\" x="590" y="420"/>
  <use xlink:href="#\" x="600" y="420"/>
  <use xlink:href="#\" x="740" y="420"/>
  <use xlink:href="#\" x="750" y="420"/>
  <use xlink:href="#\" x="230" y="430"/>
  <use xlink:href="#\" x="260" y="430"/>
  <use xlink:href="#\" x="360" y="430"/>
  <use xlink:href="#\" x="390" y="430"/>
  <use xlink:href="#\" x="480" y="430"/>
  <use xlink:href="#\" x="510" y="430"/>
  <use xlink:href="#\" x="610" y="430"/>
  <use xlink:href="#\" x="640" y="430"/>
  <use xlink:href="#\" x="230" y="440"/>
  <use xlink:href="#\" x="260" y="440"/>
  <use xlink:href="#\" x="360" y="440"/>
  <use xlink:href="#\" x="390" y="440"/>
  <use xlink:href="#\" x="480" y="440"/>
  <use xlink:href="#\" x="510" y="440"/>
  <use xlink:href="#\" x="610" y="440"/>
  <use xlink:href="#\" x="640" y="440"/>
  <use xlink:href="#\" x="120" y="450"/>
  <use xlink:href="#\" x="130" y="450"/>
  <use xlink:href="#\" x="270" y="450"/>
  <use xlink:href="#\" x="280" y="450"/>
  <use xlink:href="#\" x="410" y="450"/>
  <use xlink:href="#\" x="420" y="450"/>
  <use xlink:href="#\" x="450" y="450"/>
  <use xlink:href="#\" x="460" y="450"/>
  <use xlink:href="#\" x="590" y="450"/>
  <use xlink:href="#\" x="600" y="450"/>
  <use xlink:href="#\" x="740" y="450"/>
  <use xlink:href="#\" x="750" y="450"/>
  <use xlink:href="#\" x="220" y="460"/>
  <use xlink:href="#\" x="310" y="460"/>
  <use xlink:href="#\" x="400" y="460"/>
  <use xlink:href="#\" x="420" y="460"/>
  <use xlink:href="#\" x="450" y="460"/>
  <use xlink:href="#\" x="470" y="460"/>
  <use xlink:href="#\" x="560" y="460"/>
  <use xlink:href="#\" x="650" y="460"/>
  <use xlink:href="#\" x="120" y="470"/>
  <use xlink:href="#\" x="180" y="470"/>
  <use xlink:href="#\" x="240" y="470"/>
  <use xlink:href="#\" x="300" y="470"/>
  <use xlink:href="#\" x="410" y="470"/>
  <use xlink:href="#\" x="460" y="470"/>
  <use xlink:href="#\" x="570" y="470"/>
  <use xlink:href="#\" x="630" y="470"/>
  <use xlink:href="#\" x="690" y="470"/>
  <use xlink:href="#\" x="750" y="470"/>
  <use xlink:href="#\" x="140" y="480"/>
  <use xlink:href="#\" x="190" y="480"/>
  <use xlink:href="#\" x="240" y="480"/>
  <use xlink:href="#\" x="330" y="480"/>
  <use xlink:href="#\" x="380" y="480"/>
  <use xlink:href="#\" x="430" y="480"/>
  <use xlink:href="#\" x="440" y="480"/>
  <use xlink:href="#\" x="490" y="480"/>
  <use xlink:href="#\" x="540" y="480"/>
  <use xlink:href="#\" x="630" y="480"/>
  <use xlink:href="#\" x="680" y="480"/>
  <use xlink:href="#\" x="730" y="480"/>
  <use xlink:href="#\" x="170" y="490"/>
  <use xlink:href="#\" x="220" y="490"/>
  <use xlink:href="#\" x="340" y="490"/>
  <use xlink:href="#\" x="390" y="490"/>
  <use xlink:href="#\" x="480" y="490"/>
  <use xlink:href="#\" x="530" y="490"/>
  <use xlink:href="#\" x="650" y="490"/>
  <use xlink:href="#\" x="700" y="490"/>
  <use xlink:href="#\" x="300" y="500"/>
  <use xlink:href="#\" x="310" y="500"/>
  <use xlink:href="#\" x="320" y="500"/>
  <use xlink:href="#\" x="330" y="500"/>
  <use xlink:href="#\" x="340" y="500"/>
  <use xlink:href="#\" x="530" y="500"/>
  <use xlink:href="#\" x="540" y="500"/>
  <use xlink:href="#\" x="550" y="500"/>
  <use xlink:href="#\" x="560" y="500"/>
  <use xlink:href="#\" x="570" y="500"/>
  <use xlink:href="#\" x="200" y="510"/>
  <use xlink:href="#\" x="230" y="510"/>
  <use xlink:href="#\" x="260" y="510"/>
  <use xlink:href="#\" x="430" y="510"/>
  <use xlink:href="#\" x="440" y="510"/>
  <use xlink:href="#\" x="610" y="510"/>
  <use xlink:href="#\" x="640" y="510"/>
  <use xlink:href="#\" x="670" y="510"/>
  <use xlink:href="#\" x="220" y="520"/>
  <use xlink:href="#\" x="330" y="520"/>
  <use xlink:href="#\" x="540" y="520"/>
  <use xlink:href="#\" x="650" y="520"/>
  <use xlink:href="#\" x="190" y="530"/>
  <use xlink:href="#\" x="280" y="530"/>
  <use xlink:href="#\" x="370" y="530"/>
  <use xlink:href="#\" x="380" y="530"/>
  <use xlink:href="#\" x="490" y="530"/>
  <use xlink:href="#\" x="500" y="530"/>
  <use xlink:href="#\" x="590" y="530"/>
  <use xlink:href="#\" x="680" y="530"/>
  <use xlink:href="#\" x="290" y="540"/>
  <use xlink:href="#\" x="310" y="540"/>
  <use xlink:href="#\" x="330" y="540"/>
  <use xlink:href="#\" x="350" y="540"/>
  <use xlink:href="#\" x="370" y="540"/>
  <use xlink:href="#\" x="390" y="540"/>
  <use xlink:href="#\" x="480" y="540"/>
  <use xlink:href="#\" x="500" y="540"/>
  <use xlink:href="#\" x="520" y="540"/>
  <use xlink:href="#\" x="540" y="540"/>
  <use xlink:href="#\" x="560" y="540"/>
  <use xlink:href="#\" x="580" y="540"/>
  <use xlink:href="#\" x="140" y="550"/>
  <use xlink:href="#\" x="220" y="550"/>
  <use xlink:href="#\" x="290" y="550"/>
  <use xlink:href="#\" x="370" y="550"/>
  <use xlink:href="#\" x="500" y="550"/>
  <use xlink:href="#\" x="580" y="550"/>
  <use xlink:href="#\" x="650" y="550"/>
  <use xlink:href="#\" x="730" y="550"/>
  <use xlink:href="#\" x="250" y="560"/>
  <use xlink:href="#\" x="290" y="560"/>
  <use xlink:href="#\" x="330" y="560"/>
  <use xlink:href="#\" x="370" y="560"/>
  <use xlink:href="#\" x="410" y="560"/>
  <use xlink:href="#\" x="460" y="560"/>
  <use xlink:href="#\" x="500" y="560"/>
  <use xlink:href="#\" x="540" y="560"/>
  <use xlink:href="#\" x="580" y="560"/>
  <use xlink:href="#\" x="620" y="560"/>
  <use xlink:href="#\" x="130" y="570"/>
  <use xlink:href="#\" x="210" y="570"/>
  <use xlink:href="#\" x="290" y="570"/>
  <use xlink:href="#\" x="370" y="570"/>
  <use xlink:href="#\" x="400" y="570"/>
  <use xlink:href="#\" x="470" y="570"/>
  <use xlink:href="#\" x="500" y="570"/>
  <use xlink:href="#\" x="580" y="570"/>
  <use xlink:href="#\" x="660" y="570"/>
  <use xlink:href="#\" x="740" y="570"/>
  <use xlink:href="#\" x="130" y="580"/>
  <use xlink:href="#\" x="140" y="580"/>
  <use xlink:href="#\" x="150" y="580"/>
  <use xlink:href="#\" x="160" y="580"/>
  <use xlink:href="#\" x="170" y="580"/>
  <use xlink:href="#\" x="180" y="580"/>
  <use xlink:href="#\" x="190" y="580"/>
  <use xlink:href="#\" x="200" y="580"/>
  <use xlink:href="#\" x="210" y="580"/>
  <use xlink:href="#\" x="220" y="580"/>
  <use xlink:href="#\" x="230" y="580"/>
  <use xlink:href="#\" x="240" y="580"/>
  <use xlink:href="#\" x="250" y="580"/>
  <use xlink:href="#\" x="260" y="580"/>
  <use xlink:href="#\" x="270" y="580"/>
  <use xlink:href="#\" x="280" y="580"/>
  <use xlink:href="#\" x="290" y="580"/>
  <use xlink:href="#\" x="300" y="580"/>
  <use xlink:href="#\" x="310" y="580"/>
  <use xlink:href="#\" x="320" y="580"/>
  <use xlink:href="#\" x="330" y="580"/>
  <use xlink:href="#\" x="540" y="580"/>
  <use xlink:href="#\" x="550" y="580"/>
  <use xlink:href="#\" x="560" y="580"/>
  <use xlink:href="#\" x="570" y="580"/>
  <use xlink:href="#\" x="580" y="580"/>
  <use xlink:href="#\" x="590" y="580"/>
  <use xlink:href="#\" x="600" y="580"/>
  <use xlink:href="#\" x="610" y="580"/>
  <use xlink:href="#\" x="620" y="580"/>
  <use xlink:href="#\" x="630" y="580"/>
  <use xlink:href="#\" x="640" y="580"/>
  <use xlink:href="#\" x="650" y="580"/>
  <use xlink:href="#\" x="660" y="580"/>
  <use xlink:href="#\" x="670" y="580"/>
  <use xlink:href="#\" x="680" y="580"/>
  <use xlink:href="#\" x="690" y="580"/>
  <use xlink:href="#\" x="700" y="580"/>
  <use xlink:href="#\" x="710" y="580"/>
  <use xlink:href="#\" x="720" y="580"/>
  <use xlink:href="#\" x="730" y="580"/>
  <use xlink:href="#\" x="740" y="580"/>
  <use xlink:href="#\" x="160" y="590"/>
  <use xlink:href="#\" x="210" y="590"/>
  <use xlink:href="#\" x="290" y="590"/>
  <use xlink:href="#\" x="340" y="590"/>
  <use xlink:href="#\" x="420" y="590"/>
  <use xlink:href="#\" x="450" y="590"/>
  <use xlink:href="#\" x="530" y="590"/>
  <use xlink:href="#\" x="580" y="590"/>
  <use xlink:href="#\" x="660" y="590"/>
  <use xlink:href="#\" x="710" y="590"/>
  <use xlink:href="#\" x="120" y="600"/>
  <use xlink:href="#\" x="250" y="600"/>
  <use xlink:href="#\" x="290" y="600"/>
  <use xlink:href="#\" x="420" y="600"/>
  <use xlink:href="#\" x="450" y="600"/>
  <use xlink:href="#\" x="580" y="600"/>
  <use xlink:href="#\" x="620" y="600"/>
  <use xlink:href="#\" x="750" y="600"/>
  <use xlink:href="#\" x="150" y="610"/>
  <use xlink:href="#\" x="220" y="610"/>
  <use xlink:href="#\" x="290" y="610"/>
  <use xlink:href="#\" x="360" y="610"/>
  <use xlink:href="#\" x="430" y="610"/>
  <use xlink:href="#\" x="440" y="610"/>
  <use xlink:href="#\" x="510" y="610"/>
  <use xlink:href="#\" x="580" y="610"/>
  <use xlink:href="#\" x="650" y="610"/>
  <use xlink:href="#\" x="720" y="610"/>
  <use xlink:href="#\" x="270" y="620"/>
  <use xlink:href="#\" x="290" y="620"/>
  <use xlink:href="#\" x="310" y="620"/>
  <use xlink:href="#\" x="560" y="620"/>
  <use xlink:href="#\" x="580" y="620"/>
  <use xlink:href="#\" x="600" y="620"/>
  <use xlink:href="#\" x="180" y="630"/>
  <use xlink:href="#\" x="190" y="630"/>
  <use xlink:href="#\" x="290" y="630"/>
  <use xlink:href="#\" x="390" y="630"/>
  <use xlink:href="#\" x="400" y="630"/>
  <use xlink:href="#\" x="470" y="630"/>
  <use xlink:href="#\" x="480" y="630"/>
  <use xlink:href="#\" x="580" y="630"/>
  <use xlink:href="#\" x="680" y="630"/>
  <use xlink:href="#\" x="690" y="630"/>
  <use xlink:href="#\" x="150" y="640"/>
  <use xlink:href="#\" x="220" y="640"/>
  <use xlink:href="#\" x="290" y="640"/>
  <use xlink:href="#\" x="360" y="640"/>
  <use xlink:href="#\" x="430" y="640"/>
  <use xlink:href="#\" x="440" y="640"/>
  <use xlink:href="#\" x="510" y="640"/>
  <use xlink:href="#\" x="580" y="640"/>
  <use xlink:href="#\" x="650" y="640"/>
  <use xlink:href="#\" x="720" y="640"/>
  <use xlink:href="#\" x="140" y="650"/>
  <use xlink:href="#\" x="170" y="650"/>
  <use xlink:href="#\" x="200" y="650"/>
  <use xlink:href="#\" x="230" y="650"/>
  <use xlink:href="#\" x="260" y="650"/>
  <use xlink:href="#\" x="290" y="650"/>
  <use xlink:href="#\" x="320" y="650"/>
  <use xlink:href="#\" x="350" y="650"/>
  <use xlink:href="#\" x="380" y="650"/>
  <use xlink:href="#\" x="410" y="650"/>
  <use xlink:href="#\" x="460" y="650"/>
  <use xlink:href="#\" x="490" y="650"/>
  <use xlink:href="#\" x="520" y="650"/>
  <use xlink:href="#\" x="550" y="650"/>
  <use xlink:href="#\" x="580" y="650"/>
  <use xlink:href="#\" x="610" y="650"/>
  <use xlink:href="#\" x="640" y="650"/>
  <use xlink:href="#\" x="670" y="650"/>
  <use xlink:href="#\" x="700" y="650"/>
  <use xlink:href="#\" x="730" y="650"/>
  <use xlink:href="#\" x="280" y="660"/>
  <use xlink:href="#\" x="290" y="660"/>
  <use xlink:href="#\" x="300" y="660"/>
  <use xlink:href="#\" x="570" y="660"/>
  <use xlink:href="#\" x="580" y="660"/>
  <use xlink:href="#\" x="590" y="660"/>
  <use xlink:href="#\" x="150" y="670"/>
  <use xlink:href="#\" x="220" y="670"/>
  <use xlink:href="#\" x="290" y="670"/>
  <use xlink:href="#\" x="360" y="670"/>
  <use xlink:href="#\" x="510" y="670"/>
  <use xlink:href="#\" x="580" y="670"/>
  <use xlink:href="#\" x="650" y="670"/>
  <use xlink:href="#\" x="720" y="670"/>
  <use xlink:href="#\" x="190" y="680"/>
  <use xlink:href="#\" x="240" y="680"/>
  <use xlink:href="#\" x="290" y="680"/>
  <use xlink:href="#\" x="340" y="680"/>
  <use xlink:href="#\" x="390" y="680"/>
  <use xlink:href="#\" x="480" y="680"/>
  <use xlink:href="#\" x="530" y="680"/>
  <use xlink:href="#\" x="580" y="680"/>
  <use xlink:href="#\" x="630" y="680"/>
  <use xlink:href="#\" x="680" y="680"/>
  <use xlink:href="#\" x="130" y="690"/>
  <use xlink:href="#\" x="180" y="690"/>
  <use xlink:href="#\" x="240" y="690"/>
  <use xlink:href="#\" x="290" y="690"/>
  <use xlink:href="#\" x="400" y="690"/>
  <use xlink:href="#\" x="470" y="690"/>
  <use xlink:href="#\" x="580" y="690"/>
  <use xlink:href="#\" x="630" y="690"/>
  <use xlink:href="#\" x="690" y="690"/>
  <use xlink:href="#\" x="740" y="690"/>
  <use xlink:href="#\" x="130" y="700"/>
  <use xlink:href="#\" x="220" y="700"/>
  <use xlink:href="#\" x="290" y="700"/>
  <use xlink:href="#\" x="380" y="700"/>
  <use xlink:href="#\" x="490" y="700"/>
  <use xlink:href="#\" x="580" y="700"/>
  <use xlink:href="#\" x="650" y="700"/>
  <use xlink:href="#\" x="740" y="700"/>
  <use xlink:href="#\" x="280" y="710"/>
  <use xlink:href="#\" x="290" y="710"/>
  <use xlink:href="#\" x="580" y="710"/>
  <use xlink:href="#\" x="590" y="710"/>
  <use xlink:href="#\" x="200" y="720"/>
  <use xlink:href="#\" x="230" y="720"/>
  <use xlink:href="#\" x="260" y="720"/>
  <use xlink:href="#\" x="290" y="720"/>
  <use xlink:href="#\" x="580" y="720"/>
  <use xlink:href="#\" x="610" y="720"/>
  <use xlink:href="#\" x="640" y="720"/>
  <use xlink:href="#\" x="670" y="720"/>
  <use xlink:href="#\" x="120" y="730"/>
  <use xlink:href="#\" x="220" y="730"/>
  <use xlink:href="#\" x="290" y="730"/>
  <use xlink:href="#\" x="320" y="730"/>
  <use xlink:href="#\" x="390" y="730"/>
  <use xlink:href="#\" x="480" y="730"/>
  <use xlink:href="#\" x="550" y="730"/>
  <use xlink:href="#\" x="580" y="730"/>
  <use xlink:href="#\" x="650" y="730"/>
  <use xlink:href="#\" x="750" y="730"/>
  <use xlink:href="#\" x="170" y="740"/>
  <use xlink:href="#\" x="180" y="740"/>
  <use xlink:href="#\" x="290" y="740"/>
  <use xlink:href="#\" x="300" y="740"/>
  <use xlink:href="#\" x="420" y="740"/>
  <use xlink:href="#\" x="450" y="740"/>
  <use xlink:href="#\" x="570" y="740"/>
  <use xlink:href="#\" x="580" y="740"/>
  <use xlink:href="#\" x="690" y="740"/>
  <use xlink:href="#\" x="700" y="740"/>
  <use xlink:href="#\" x="140" y="750"/>
  <use xlink:href="#\" x="270" y="750"/>
  <use xlink:href="#\" x="400" y="750"/>
  <use xlink:href="#\" x="420" y="750"/>
  <use xlink:href="#\" x="450" y="750"/>
  <use xlink:href="#\" x="470" y="750"/>
  <use xlink:href="#\" x="600" y="750"/>
  <use xlink:href="#\" x="730" y="750"/>
</svg>
